<svg xmlns="http://www.w3.org/2000/svg" width="158" height="140" viewBox="0 0 158 140">
  <metadata><?xpacket begin="﻿" id="W5M0MpCehiHzreSzNTczkc9d"?>
<x:xmpmeta xmlns:x="adobe:ns:meta/" x:xmptk="Adobe XMP Core 5.6-c138 79.159824, 2016/09/14-01:09:01        ">
   <rdf:RDF xmlns:rdf="http://www.w3.org/1999/02/22-rdf-syntax-ns#">
      <rdf:Description rdf:about=""
            xmlns:xmp="http://ns.adobe.com/xap/1.0/">
         <xmp:CreatorTool>Adobe Photoshop CC 2017 (Macintosh)</xmp:CreatorTool>
      </rdf:Description>
   </rdf:RDF>
</x:xmpmeta>
                                                                                                    
                                                                                                    
                                                                                                    
                                                                                                    
                                                                                                    
                                                                                                    
                                                                                                    
                                                                                                    
                                                                                                    
                                                                                                    
                                                                                                    
                                                                                                    
                                                                                                    
                                                                                                    
                                                                                                    
                                                                                                    
                                                                                                    
                                                                                                    
                                                                                                    
                                                                                                    
                           
<?xpacket end="w"?></metadata>
<defs>
    <style>
      .cls-1 {
        fill: #eaeaea;
        fill-rule: evenodd;
      }
    </style>
  </defs>
  <path id="撤回-圆" class="cls-1" d="M3297.99,5850.49l-24.18-38.52a7.286,7.286,0,0,0-9.87-2.26l-119.7,76.8a7.559,7.559,0,0,0-2.22,10l23.94,38.28a7.35,7.35,0,0,0,9.87,2.25l119.7-76.8a7.094,7.094,0,0,0,2.46-9.75h0Zm-4.93,5.75-119.7,76.79a2.385,2.385,0,0,1-3.21-.75l-23.94-38.27a2.461,2.461,0,0,1,.74-3.25l119.7-76.79a2.385,2.385,0,0,1,3.21.75l23.94,38.27a2.461,2.461,0,0,1-.74,3.25h0Zm-104.4-29.02-0.49-5.25,4.44,2.75,4.69-2.25-1.23,5,3.45,4.01-5.18.5-2.47,4.5-1.97-4.75-4.94-1a50.386,50.386,0,0,1,3.7-3.51h0Zm27.15-9.75,2.22-4.75,2.47,4.5,5.18,0.5-3.45,3.75,0.98,5.25-4.68-2.25-4.45,2.75,0.74-5.25-3.95-3.5c-0.24,0,4.94-1,4.94-1h0Zm35.54,102.56,0.49,5.25-4.44-2.75-4.69,2,1.24-5-3.46-4.01,5.18-.5,2.72-4.5,1.97,4.75,4.94,1c0,0.25-3.95,3.76-3.95,3.76h0Zm18.12-18.76,0.5,5.25-4.45-2.75-4.68,2,1.23-5-3.46-4.01,5.19-.5,2.71-4.5,1.98,4.75,4.93,1c0,0.25-3.95,3.76-3.95,3.76h0Zm-45.27,28.26-2.22,4.75-2.47-4.5-5.18-.5,3.7-3.75-0.99-5,4.69,2.25,4.45-2.5-0.74,5.25,3.7,3.5c0-.5-4.94.5-4.94,0.5h0Zm-53.8-80.79-2.96-4.26,5.18,0.25,3.21-4.25,1.48,5,4.94,1.76-4.2,3v5.25l-3.95-3.25-4.93,1.5c-0.5,0,1.23-5,1.23-5h0Zm15.05-30.77a63.377,63.377,0,0,1,63.43-3l4.69-3a69.4,69.4,0,0,0-18.51-7.26,67.163,67.163,0,0,0-26.41-.75,64.7,64.7,0,0,0-25.66,10.01,70.194,70.194,0,0,0-31.84,63.78l4.69-3a63.471,63.471,0,0,1,29.61-56.78h0Zm68.86,110.06a63.376,63.376,0,0,1-63.43,3l-4.68,3a69.333,69.333,0,0,0,18.5,7.26,67.163,67.163,0,0,0,26.41.75,68.775,68.775,0,0,0,25.67-10.01,66.156,66.156,0,0,0,19.74-19.26,69.716,69.716,0,0,0,10.61-24.51,68.362,68.362,0,0,0,1.49-20.01l-4.45,3c0.5,22.26-10.12,44.27-29.86,56.78h0Zm-54.54-87.3a35.642,35.642,0,0,1,17.77-5.75l7.4-4.75a40.447,40.447,0,0,0-27.64,6.5,42.668,42.668,0,0,0-17.52,22.51l7.4-4.75a33.459,33.459,0,0,1,12.59-13.76h0Zm40.23,64.54a35.642,35.642,0,0,1-17.77,5.75l-7.41,4.75a40.488,40.488,0,0,0,27.64-6.5,42.638,42.638,0,0,0,17.53-22.51l-7.41,4.75a36.922,36.922,0,0,1-12.58,13.76h0Zm-36.68-10.03c2.73-1.72,2.79-2.56.85-6.64a16.81,16.81,0,0,0,4.98-.98c2.59,5.79,2.13,8.19-3.15,11.51l-8.48,5.33c-5.8,3.65-8.26,3.54-11.12-1.15l-7.61-12.42,4.13-2.6,2.04,3.33,11.41-7.17-3.14-5.13-16.44,10.34-2.45-4,20.6-12.95,8.78,14.34-4.16,2.61-0.77-1.25-11.4,7.18,3.12,5.1c1.05,1.72,1.54,1.64,4.57-.27Zm25.73-35.14a50.434,50.434,0,0,1,4.55,12.76,12.542,12.542,0,0,0,5.76,2.1,18.043,18.043,0,0,0-.38,4.46,14.338,14.338,0,0,1-4.97-1.86,19.5,19.5,0,0,1-.86,5.57,17.586,17.586,0,0,0-3.14-1.29,2.408,2.408,0,0,1,.01,1.95,5.944,5.944,0,0,1-2.57,2.42,12.5,12.5,0,0,0-2.81-2.61c0.54-.3,1.09-0.64,1.31-0.78s0.22-.25.08-0.48l-0.71-1.16-1.86,1.17,2.9,4.74-3.2,2.01-9.03-14.75,8.02-5.04a10.988,10.988,0,0,0-.13-1.26l-1.68,2.21c-0.25-.23-0.52-0.48-0.85-0.77-3.88,3.32-4.71,4-5.11,4.59a27.47,27.47,0,0,0-2.42-1.97l-1.8,1.13,2.17,3.55,1.44-1.48,2.68,3.27c-0.57.67-1.18,1.35-1.8,2.01l3.77,6.16c0.97,1.58,1.33,2.66.86,3.75-0.44,1.13-1.45,1.96-2.99,2.92a16.2,16.2,0,0,0-3.01-2.94,14.075,14.075,0,0,0,1.66-1.01c0.27-.17.3-0.3,0.12-0.61l-3.19-5.21-1.48,1.62-3.18-3.34c0.69-.62,1.44-1.37,2.26-2.19l-2.68-4.38-2.16,1.36-2.26-3.69,2.17-1.36-3.09-5.05,3.36-2.11,3.09,5.04,1.86-1.17,2,3.28a2.992,2.992,0,0,0,.36-1.34,20.468,20.468,0,0,0-.14-2.76l-1.72,1.09-1.92-3.14,2.88-1.8a20.242,20.242,0,0,0-1.71-1.43l2.72-2.67a19.035,19.035,0,0,1,2.46,1.91l3.15-1.98,1.91,3.14-4.35,2.73a20.013,20.013,0,0,1,.04,3.28l1.51-1.25c-0.34-.25-0.7-0.52-1.02-0.74l1.99-2.44a43.53,43.53,0,0,1,3.97,2.95,42.184,42.184,0,0,0-4.15-10.91l3.63-1.63c0.68,1.42,1.28,2.84,1.89,4.27l4.57-2.88,2.12,3.47Zm-9.97,15.1,0.71,1.16,1.86-1.17-0.71-1.16Zm4.64,3.37-0.52-.86-1.86,1.17,0.53,0.86Zm5.84,2.29a15.639,15.639,0,0,0,.5-6.23,44.613,44.613,0,0,1-3.87-3.91,6.98,6.98,0,0,1,0,1.12,20.123,20.123,0,0,0-3.15-1.63l6.23,10.18Zm-4.89-18.01c0.19,0.61.38,1.18,0.52,1.78,1.03,1.31,2.19,2.7,3.4,4.01a53.98,53.98,0,0,0-2.8-6.5Zm27.17-26.8,15.61,25.51-4.35,2.74-0.91-1.5-15.35,9.65,0.91,1.5-4.13,2.59-15.61-25.51Zm8.05,23.01-9.87-16.14-15.35,9.65,9.88,16.14Zm-10.16-12.28,6.67,10.9-11.54,7.26-6.67-10.9Zm-1.85,6.01-3.81,2.39,2.41,3.94,3.81-2.39Z" transform="translate(-3141 -5803)"/>
</svg>
