<svg xmlns="http://www.w3.org/2000/svg" width="128" height="140" viewBox="0 0 128 140">
  <metadata><?xpacket begin="﻿" id="W5M0MpCehiHzreSzNTczkc9d"?>
<x:xmpmeta xmlns:x="adobe:ns:meta/" x:xmptk="Adobe XMP Core 5.6-c138 79.159824, 2016/09/14-01:09:01        ">
   <rdf:RDF xmlns:rdf="http://www.w3.org/1999/02/22-rdf-syntax-ns#">
      <rdf:Description rdf:about=""
            xmlns:xmp="http://ns.adobe.com/xap/1.0/">
         <xmp:CreatorTool>Adobe Photoshop CC 2017 (Macintosh)</xmp:CreatorTool>
      </rdf:Description>
   </rdf:RDF>
</x:xmpmeta>
                                                                                                    
                                                                                                    
                                                                                                    
                                                                                                    
                                                                                                    
                                                                                                    
                                                                                                    
                                                                                                    
                                                                                                    
                                                                                                    
                                                                                                    
                                                                                                    
                                                                                                    
                                                                                                    
                                                                                                    
                                                                                                    
                                                                                                    
                                                                                                    
                                                                                                    
                                                                                                    
                           
<?xpacket end="w"?></metadata>
<defs>
    <style>
      .cls-1 {
        fill: #eaeaea;
        fill-rule: evenodd;
      }
    </style>
  </defs>
  <path id="形状_850" data-name="形状 850" class="cls-1" d="M3254.4,4737.38v-70.37a11.642,11.642,0,0,0-11.63-11.66h-81.85a11.66,11.66,0,0,0-11.64,11.66v93.83a11.651,11.651,0,0,0,11.62,11.66l64.63,0.13-0.27-22.74c0-6.61,4.94-11.83,10.87-12.18l18.27-.33h0Zm-19.17,30.4,15.78-19.9-14.88.28a1.463,1.463,0,0,0-1.32,1.39Zm30.73-24.55a3.5,3.5,0,0,1-1.11,2.33l-28.82,36.67a6.586,6.586,0,0,1-4.38,1.76V4784h-70.38a23.3,23.3,0,0,1-23.27-23.32v-93.22h0.01a23.294,23.294,0,0,1,23.26-23.32l81.45-.03v-0.01a23.3,23.3,0,0,1,23.28,23.32l-0.01,75.81h-0.03Zm-52.39-34.97H3173a5.84,5.84,0,0,1,0-11.68h40.57a5.84,5.84,0,0,1,0,11.68h0Zm11.69-23.32H3173a5.84,5.84,0,0,1,0-11.68h52.26a5.84,5.84,0,0,1,0,11.68h0Zm0,46.63H3173a5.835,5.835,0,0,1,0-11.67h52.26a5.835,5.835,0,0,1,0,11.67h0Zm0,0,26.47-51.86-3.85-3.73,1.32-1.36,3.85,3.73Zm0,0-22.77-19.23,6.96,6.73-1.25,1.3-6.96-6.73Zm0,0,7.15-16.48h-45.52l75.22,75.37V4673.6Zm-4.91,8.92a15.217,15.217,0,0,0,1.48,1.59l2.02,1.95,0.29-.31a4.949,4.949,0,0,0,.76-0.96l1.01,0.97a7.385,7.385,0,0,0-.92.81l-0.3.31,3.21,3.09,0.29-.3a6.607,6.607,0,0,0,.78-0.95l1,0.97a6.526,6.526,0,0,0-.93.8l-0.3.31,2.23,2.15a14.52,14.52,0,0,0,1.66,1.44l-0.91.93a14.557,14.557,0,0,0-1.47-1.56l-2.26-2.18-0.2.21a7.55,7.55,0,0,0-.79.93l-0.95-.92c0.34-.29.62-0.56,0.89-0.83l0.2-.21-3.2-3.1-0.2.21a10.945,10.945,0,0,0-.8.92l-0.95-.92a8.654,8.654,0,0,0,.9-0.82l0.2-.21-2.04-1.98a17.123,17.123,0,0,0-1.6-1.41l0.9-.93h0Zm2.73,18.88a15.148,15.148,0,0,0,1.5,1.29l-0.94.97a14.635,14.635,0,0,0-1.34-1.45l-4.41-4.27-0.94.98a13.228,13.228,0,0,0-1.28,1.51l-1.07-1.03a12.643,12.643,0,0,0,1.46-1.35l0.94-.97-4.08-3.94a14.069,14.069,0,0,0-1.52-1.31l0.94-.97a14.651,14.651,0,0,0,1.36,1.47l4.08,3.94,1.28-1.34-2.67-2.58c-0.47-.46-0.75-0.7-1.19-1.08,0.36-.32.68-0.63,0.98-0.93l2.78-2.89c0.28-.29.59-0.64,0.9-1.02a10.333,10.333,0,0,0,1.11,1.16l6.49,6.27a11.767,11.767,0,0,0,1.19,1.08c-0.36.32-.63,0.57-0.98,0.93l-2.78,2.89c-0.35.36-.59,0.64-0.9,1.02-0.39-.44-0.65-0.72-1.12-1.18l-2.91-2.81-1.29,1.34,4.41,4.27h0Zm2.83,8.58-0.99-.95a13.257,13.257,0,0,0,1.61-1.5l3.07-3.19c0.62-.65,1.28-1.3,2.12-2.1a11.778,11.778,0,0,1-2.3,1.19,12.087,12.087,0,0,1-3.13.88,2.682,2.682,0,0,0,.18-1.25,14.465,14.465,0,0,0,6.31-2.25l-0.82-.79a8.954,8.954,0,0,0-1.08-.92l0.86-.89a8.17,8.17,0,0,0,.96,1.07l0.92,0.89,1.94-2.03c-0.67-.38-1.02-0.58-1.92-1.15a4.15,4.15,0,0,0,.34-1.16,12.956,12.956,0,0,0,4.97,2.49l-0.1,1.27c-0.21-.06-0.38-0.14-0.49-0.17a11.548,11.548,0,0,1-1.73-.73l-2.19,2.27,0.57,0.55a9.767,9.767,0,0,0,1.1.96l-0.84.86a11.513,11.513,0,0,0-1-1.08l-0.56-.54-0.59.62a19.029,19.029,0,0,1-.39,3.25l-1.14-.05a15.165,15.165,0,0,0,.53-2.16l-4.76,4.94a12.941,12.941,0,0,0-1.45,1.67h0Zm5.41,1.53c0.17-.15.2-0.18,0.36-0.32a2.925,2.925,0,0,0,.4-0.39l1.09-1.13a11.3,11.3,0,0,0,.79-0.9,13.269,13.269,0,0,0,.94.98l1.75,1.7a13.148,13.148,0,0,0,1.07.95,10.905,10.905,0,0,0-.81.75l-1.14,1.19a8.994,8.994,0,0,0-.68.79c-0.35-.39-0.71-0.76-0.95-0.99l-1.64-1.59c-0.29-.28-1-0.92-1.18-1.04h0Zm8.78,2.33-3.82,3.96c-0.68.71-1.24,0.65-2.13-.21-0.36-.35-0.7-0.7-1.13-1.14a3.9,3.9,0,0,0,.65-1.04,12.77,12.77,0,0,0,1.2,1.37c0.34,0.33.47,0.35,0.7,0.11l4.12-4.28-6.01-5.81-3.85,4a13.874,13.874,0,0,0-1.42,1.62l-0.97-.93a15.141,15.141,0,0,0,1.55-1.47l3.41-3.54c0.43-.45.84-0.89,1.18-1.31,0.27,0.31.77,0.85,1.24,1.31l5.18,5a10.489,10.489,0,0,0,1.34,1.18,16,16,0,0,0-1.24,1.18h0Zm2.81-4.99-1.1,1.15a8.982,8.982,0,0,0-.78.89,12.383,12.383,0,0,0-.93-0.99l-3.57-3.44a12.08,12.08,0,0,0-1.07-.95,9.747,9.747,0,0,0,.82-0.77l1.17-1.22a9.6,9.6,0,0,0,.75-0.86c0.28,0.32.49,0.55,0.99,1.04l3.48,3.36c0.48,0.46.8,0.74,1.1,0.98-0.27.23-.54,0.48-0.86,0.81h0Zm2.92-.27c-0.38-.44-0.79-0.9-1.36-1.45l-5.25-5.08a19.549,19.549,0,0,0-1.5-1.31l0.86-.9a13.906,13.906,0,0,0,1.38,1.5l2.22,2.15a7.722,7.722,0,0,0,.35-1.5l1.1,0.34a18.445,18.445,0,0,1-.53,2.05l2.06,1.99a14.058,14.058,0,0,0,1.53,1.32Zm0,0-25.82-20.46,6.96,6.73-1.2,1.24-6.96-6.73Zm0,0,14.03,22.11,2.24,2.17-1.23,1.27-2.24-2.17Zm0,0" transform="translate(-3138 -4644)"/>
</svg>
