<svg xmlns="http://www.w3.org/2000/svg" width="158" height="140" viewBox="0 0 158 140">
  <metadata><?xpacket begin="﻿" id="W5M0MpCehiHzreSzNTczkc9d"?>
<x:xmpmeta xmlns:x="adobe:ns:meta/" x:xmptk="Adobe XMP Core 5.6-c138 79.159824, 2016/09/14-01:09:01        ">
   <rdf:RDF xmlns:rdf="http://www.w3.org/1999/02/22-rdf-syntax-ns#">
      <rdf:Description rdf:about=""
            xmlns:xmp="http://ns.adobe.com/xap/1.0/">
         <xmp:CreatorTool>Adobe Photoshop CC 2017 (Macintosh)</xmp:CreatorTool>
      </rdf:Description>
   </rdf:RDF>
</x:xmpmeta>
                                                                                                    
                                                                                                    
                                                                                                    
                                                                                                    
                                                                                                    
                                                                                                    
                                                                                                    
                                                                                                    
                                                                                                    
                                                                                                    
                                                                                                    
                                                                                                    
                                                                                                    
                                                                                                    
                                                                                                    
                                                                                                    
                                                                                                    
                                                                                                    
                                                                                                    
                                                                                                    
                           
<?xpacket end="w"?></metadata>
<defs>
    <style>
      .cls-1 {
        fill: #00aa35;
        fill-rule: evenodd;
      }
    </style>
  </defs>
  <path id="形状_793" data-name="形状 793" class="cls-1" d="M3295.99,1243.49l-24.18-38.53a7.292,7.292,0,0,0-9.87-2.25l-119.7,76.8a7.559,7.559,0,0,0-2.22,10l23.94,38.28a7.35,7.35,0,0,0,9.87,2.25l119.7-76.8a7.094,7.094,0,0,0,2.46-9.75h0Zm-4.93,5.75-119.7,76.79a2.385,2.385,0,0,1-3.21-.75l-23.94-38.27a2.461,2.461,0,0,1,.74-3.25l119.7-76.79a2.385,2.385,0,0,1,3.21.75l23.94,38.27a2.451,2.451,0,0,1-.74,3.25h0Zm-104.4-29.02-0.49-5.25,4.44,2.75,4.69-2.25-1.23,5,3.45,4.01-5.18.5-2.47,4.5-1.97-4.75-4.94-1a50.386,50.386,0,0,1,3.7-3.51h0Zm27.15-9.75,2.22-4.75,2.47,4.5,5.18,0.5-3.45,3.75,0.98,5.25-4.68-2.25-4.45,2.75,0.74-5.25-3.95-3.5c-0.24,0,4.94-1,4.94-1h0Zm35.54,102.56,0.49,5.25-4.44-2.75-4.69,2,1.24-5-3.46-4.01,5.18-.5,2.72-4.5,1.97,4.75,4.94,1c0,0.25-3.95,3.76-3.95,3.76h0Zm18.12-18.76,0.5,5.25-4.45-2.75-4.68,2,1.23-5-3.46-4.01,5.19-.5,2.71-4.5,1.98,4.75,4.93,1c0,0.25-3.95,3.76-3.95,3.76h0Zm-45.27,28.26-2.22,4.75-2.47-4.5-5.18-.5,3.7-3.75-0.99-5,4.69,2.25,4.45-2.5-0.74,5.25,3.7,3.5c0-.5-4.94.5-4.94,0.5h0Zm-53.8-80.79-2.96-4.26,5.18,0.25,3.21-4.25,1.48,5,4.94,1.76-4.2,3v5.25l-3.95-3.25-4.93,1.5c-0.5,0,1.23-5,1.23-5h0Zm15.05-30.77a63.377,63.377,0,0,1,63.43-3l4.69-3.01a69.71,69.71,0,0,0-18.51-7.25,67.163,67.163,0,0,0-26.41-.75,64.7,64.7,0,0,0-25.66,10.01,70.194,70.194,0,0,0-31.84,63.78l4.69-3a63.471,63.471,0,0,1,29.61-56.78h0Zm68.86,110.06a63.376,63.376,0,0,1-63.43,3l-4.68,3a69.333,69.333,0,0,0,18.5,7.26,67.163,67.163,0,0,0,26.41.75,68.775,68.775,0,0,0,25.67-10.01,66.156,66.156,0,0,0,19.74-19.26,69.716,69.716,0,0,0,10.61-24.51,68.337,68.337,0,0,0,1.49-20.01l-4.45,3c0.5,22.26-10.12,44.27-29.86,56.78h0Zm-54.54-87.3a35.642,35.642,0,0,1,17.77-5.75l7.4-4.75a40.447,40.447,0,0,0-27.64,6.5,42.668,42.668,0,0,0-17.52,22.51l7.4-4.75a33.459,33.459,0,0,1,12.59-13.76h0Zm40.23,64.54a35.642,35.642,0,0,1-17.77,5.75l-7.41,4.75a40.434,40.434,0,0,0,27.64-6.5,42.638,42.638,0,0,0,17.53-22.51l-7.41,4.75a36.922,36.922,0,0,1-12.58,13.76h0Zm-36.68-10.03c2.73-1.72,2.79-2.56.85-6.64a16.81,16.81,0,0,0,4.98-.98c2.59,5.79,2.13,8.19-3.15,11.51l-8.48,5.33c-5.8,3.65-8.26,3.54-11.12-1.15l-7.61-12.42,4.13-2.6,2.04,3.33,11.41-7.17-3.14-5.13-16.44,10.34-2.45-4,20.6-12.95,8.78,14.34-4.16,2.61-0.77-1.25-11.4,7.18,3.12,5.1c1.05,1.72,1.54,1.64,4.57-.27Zm6.91-20.28-3.97,2.5-4.51-7.38,9.73-6.12a20.68,20.68,0,0,0-1.81-1.35l3.37-3.78a22.588,22.588,0,0,1,3.15,2.17l9.33-5.86,4.51,7.37-4.16,2.62-2.15-3.53-15.65,9.84Zm23.79,2.05c0.77-.48.63-1.01-0.91-3.84a12.692,12.692,0,0,0,4.49-.71c2.15,4.45,1.84,6.22-.95,7.97l-3.04,1.91c-3.56,2.24-5.11,1.56-7.23-1.9l-2.73-4.47-3.09,1.95c2.84,5.31,3.46,8.99-3.23,15.15a12.648,12.648,0,0,0-4.17-2.17c5.59-4.74,5.28-6.78,3.32-10.42l-6.43,4.04-2.31-3.77,24.65-15.5,2.31,3.77-7,4.41,2.71,4.43c0.58,0.95.74,0.96,1.59,0.43Zm-21.87-.95-2.26-3.69,13.82-8.68,2.25,3.68Zm44.66-30.65a41.9,41.9,0,0,1,1.23,12.66c1.57,1.2,2.81,1.69,3.47,1.28,0.55-.35.03-1.94-1.91-5.41a12.348,12.348,0,0,0,4.78.19c2.7,5.78,2.13,7.75-.69,9.53-1.8,1.13-4.01.87-6.41-.39a28.535,28.535,0,0,1-2.03,5.85,28.033,28.033,0,0,0-4.9-1.52,23.069,23.069,0,0,0,2.63-7.46,64.124,64.124,0,0,1-8.52-9.77l-7.11,4.47,1.61,2.63,6.7-4.21s0.57,0.99.84,1.43c3.38,5.71,4.81,8.35,4.69,9.65a3.627,3.627,0,0,1-1.29,2.53,22.223,22.223,0,0,1-3.04,2.15,11.056,11.056,0,0,0-3.25-3.03,23.434,23.434,0,0,1,2.37,9.65,18.343,18.343,0,0,0-5.08-.64c0.02-4.55-2.85-9.54-5.07-13.18l-5.09-8.31,11.05-6.95q-1.26-1.86-2.43-3.78l4.19-2.63c0.75,1.29,1.53,2.57,2.37,3.81l3.09-1.94a37.8,37.8,0,0,0-3.91-.2l0.93-3.92a26.451,26.451,0,0,1,6.04.2l-0.49,2.3,2.9-1.82,2.43,3.96-8.35,5.25a69.014,69.014,0,0,0,4.78,5.82,33.88,33.88,0,0,0-1.15-6.64Zm-15.64,15.74c0.81,1.45,1.64,3.04,2.4,4.72,0.87-.44,1.6-0.86,2.03-1.13a1.073,1.073,0,0,0,.6-0.88c0.02-.47-0.57-1.67-2.21-4.48Z" transform="translate(-3139 -1196)"/>
</svg>
