<svg xmlns="http://www.w3.org/2000/svg" width="130" height="142" viewBox="0 0 130 142">
  <metadata><?xpacket begin="﻿" id="W5M0MpCehiHzreSzNTczkc9d"?>
<x:xmpmeta xmlns:x="adobe:ns:meta/" x:xmptk="Adobe XMP Core 5.6-c138 79.159824, 2016/09/14-01:09:01        ">
   <rdf:RDF xmlns:rdf="http://www.w3.org/1999/02/22-rdf-syntax-ns#">
      <rdf:Description rdf:about=""
            xmlns:xmp="http://ns.adobe.com/xap/1.0/">
         <xmp:CreatorTool>Adobe Photoshop CC 2017 (Macintosh)</xmp:CreatorTool>
      </rdf:Description>
   </rdf:RDF>
</x:xmpmeta>
                                                                                                    
                                                                                                    
                                                                                                    
                                                                                                    
                                                                                                    
                                                                                                    
                                                                                                    
                                                                                                    
                                                                                                    
                                                                                                    
                                                                                                    
                                                                                                    
                                                                                                    
                                                                                                    
                                                                                                    
                                                                                                    
                                                                                                    
                                                                                                    
                                                                                                    
                                                                                                    
                           
<?xpacket end="w"?></metadata>
<defs>
    <style>
      .cls-1 {
        fill: #eaeaea;
        fill-rule: evenodd;
      }
    </style>
  </defs>
  <path id="形状_851" data-name="形状 851" class="cls-1" d="M3256.22,8198.75v-71.34a11.83,11.83,0,0,0-11.81-11.82h-83.14a11.83,11.83,0,0,0-11.81,11.82v95.12a11.811,11.811,0,0,0,11.8,11.81l65.63,0.14-0.26-23.05c0-6.7,5.01-12,11.04-12.35l18.55-.33h0Zm-19.47,30.81,16.02-20.17-15.1.28a1.493,1.493,0,0,0-1.35,1.41Zm31.21-24.88a3.571,3.571,0,0,1-1.13,2.36l-29.27,37.17a6.673,6.673,0,0,1-4.44,1.78V8246h-71.49a23.631,23.631,0,0,1-23.63-23.63v-94.5h0.01a23.637,23.637,0,0,1,23.62-23.64l82.72-.03v-0.01a23.643,23.643,0,0,1,23.65,23.64l-0.01,76.85h-0.03Zm-41.34-11.82-88.5-16.74c0-5.69.01-11.38-.01-17.07-0.03-13.58-.09-27.15-0.09-40.73a12.581,12.581,0,0,1,2.02-6.69,19.073,19.073,0,0,1,2.49-3.18,13.789,13.789,0,0,1,7.07-3.88,15.876,15.876,0,0,1,3.08-.34c1.97-.05,3.94-0.01,5.91-0.02q27.84-.045,55.66-0.11c3.96-.01,7.91-0.11,11.87-0.1a11.777,11.777,0,0,1,4.55.8c2.58,1.09,3.47,3.11,2.38,5.88a9.9,9.9,0,0,1-2.23,3.33q-6.405,6.495-12.84,12.96l-14.55,14.67q-5.775,5.82-11.53,11.64-8.775,8.835-17.55,17.66-6.825,6.87-13.64,13.76c-4.2,4.23-8.38,8.49-12.61,12.7a9.75,9.75,0,0,1-4.16,2.54,3.88,3.88,0,0,1-4.58-1.81,8.087,8.087,0,0,1-1.12-3.99c-0.03-6.01-.01-12.01-0.01-18.02h-0.11Zm43.83-53.24c-0.12-.64-0.24-1.16-0.33-1.68a4.287,4.287,0,0,0-1.98-3.45c-1.39,1.4-2.82,2.83-4.26,4.26-0.24-.63-0.46-1.21-0.7-1.85-0.74.49-1.41,0.93-2.03,1.34,0.48,1.55,1.05,3.03,1.38,4.56,0.33,1.55.43,3.14,0.64,4.75,0.51,0.04,1.1.1,1.7,0.11a1.652,1.652,0,0,1,1.23.53c2.7,2.74,5.43,5.45,8.16,8.18a2.1,2.1,0,0,0,1.58.66,2.7,2.7,0,0,0,1.85-.99c1.15-1.11,2.27-2.25,3.39-3.38,0.97-.99,1.97-1.96,2.87-3.01a2.558,2.558,0,0,0,.2-3.35c-0.61-.94-1.25-1.86-1.85-2.77-0.65.34-1.25,0.66-1.86,0.96-0.34.16-.35,0.31-0.13,0.59,0.45,0.56.87,1.14,1.29,1.73a1.342,1.342,0,0,1-.13,2.04c-1.64,1.76-3.38,3.42-5.09,5.12a0.724,0.724,0,0,1-1.09.03c-1.14-1.11-2.26-2.25-3.37-3.37l7.51-7.51c-2.1-2.11-4.15-4.17-6.24-6.26-0.86.86-1.75,1.77-2.74,2.76h0Zm-13.5,36.61c3.3-3.29,6.63-6.62,9.9-9.89-0.49-.51-1.04-1.08-1.65-1.72l-8.1,8.1c-1.1-1.09-2.18-2.17-3.32-3.31,2.32-2.32,4.69-4.69,7.01-7l-6.81-6.81c-2.34,2.35-4.71,4.72-7.05,7.06l-2.81-2.81c2.6-2.59,5.22-5.21,7.81-7.79-0.58-.6-1.15-1.18-1.67-1.71-3.21,3.21-6.42,6.42-9.59,9.6,5.43,5.44,10.9,10.9,16.28,16.28h0Zm-12.79-2.85c-0.67,1.16-1.35,2.37-2.04,3.58,0.75,0.44,1.5.9,2.26,1.35,0.54-1.07,1.07-2.11,1.62-3.19l4.06,4.06c0.63,0.62.63,0.95-.02,1.58-0.44.44-.9,0.86-1.38,1.31,0.75,0.47,1.45.89,2.14,1.32,0.61-.61,1.2-1.16,1.75-1.76,1.1-1.21,1.27-2.29-.04-3.61-1.66-1.67-3.31-3.34-4.99-4.98a0.814,0.814,0,0,1-.19-1.1c0.33-.73.55-1.51,0.81-2.28a0.5,0.5,0,0,0,.01-0.38c-0.53-.56-1.09-1.11-1.67-1.7-0.42,1.12-.79,2.14-1.16,3.15l-3.35-3.35c0.69-.67,1.4-1.36,2.12-2.05l-1.8-1.8c-0.7.72-1.4,1.43-2.13,2.18-1.09-1.1-2.15-2.18-3.13-3.17-0.61.6-1.2,1.19-1.9,1.89,1.02,1.02,2.09,2.09,3.27,3.26-0.77.77-1.58,1.57-2.32,2.31,0.52,0.53,1.06,1.1,1.66,1.72l2.37-2.4c1.34,1.35,2.67,2.68,4.05,4.06h0Zm21-17.25c-1.01-3.44-1.99-6.81-2.99-10.22-0.69.32-1.23,0.59-1.79,0.82-0.35.15-.48,0.29-0.31,0.7,0.32,0.76.56,1.55,0.83,2.33a0.607,0.607,0,0,1,.06.42c-0.41.58-.85,1.13-1.34,1.76a44.1,44.1,0,0,0-3.02-8.21c-0.81.36-1.54,0.69-2.24,1.01,0.84,1.85,1.71,3.62,2.45,5.44,0.51,1.27,1.32,2.5.93,3.96,0.55,0.32,1.08.62,1.6,0.94a0.481,0.481,0,0,0,.75-0.16c0.55-.79,1.13-1.58,1.81-2.51,0.46,2.33,1.64,4.38,1.05,6.77,0.67,0.36,1.35.73,2.15,1.16,1.37-2.32,2.73-4.62,4.03-6.84-0.64-.65-1.17-1.18-1.66-1.68-0.76,1.42-1.55,2.87-2.31,4.31h0Zm3.64,8.25a41.27,41.27,0,0,0,3.85-7.47,0.557,0.557,0,0,0,.06-0.38c-0.51-.54-1.04-1.06-1.58-1.6-0.12.23-.21,0.37-0.27,0.52a39.553,39.553,0,0,1-3.78,7.02,0.416,0.416,0,0,0,.09.68c0.53,0.39,1.06.79,1.63,1.23h0Zm0,0-3.45-19.65c-0.21-1.04-.38-1.99-0.6-2.94a0.794,0.794,0,0,1,.25-0.9c0.8-.76,1.57-1.56,2.35-2.34,0.13-.13.26-0.24,0.46-0.43,0.22,1.18.42,2.27,0.61,3.36a0.467,0.467,0,0,1-.12.29c-0.97.98-1.95,1.96-2.95,2.96h0Zm0,0,10.66-1.69c-0.67.68-1.38,1.39-2.07,2.08-0.92-.92-1.87-1.88-2.8-2.81,0.67-.67,1.4-1.38,2.08-2.05,0.91,0.9,1.87,1.86,2.79,2.78h0Zm0,0-6.54.95c0.93,0.94,1.88,1.89,2.83,2.84-0.67.65-1.37,1.34-2.03,1.98-0.92-.92-1.88-1.88-2.83-2.84,0.61-.59,1.31-1.28,2.03-1.98h0Zm0,0-15.49,15.05c1.09,1.08,2.22,2.22,3.35,3.35l-5.26,5.26-3.35-3.35c1.71-1.71,3.49-3.5,5.26-5.26h0Zm0,0" transform="translate(-3138 -8104)"/>
</svg>
