<?xml version="1.0" encoding="utf-8"?>
<!-- Generator: Adobe Illustrator 21.0.0, SVG Export Plug-In . SVG Version: 6.00 Build 0)  -->
<svg version="1.1" id="图层_1" xmlns="http://www.w3.org/2000/svg" xmlns:xlink="http://www.w3.org/1999/xlink" x="0px" y="0px"
	 viewBox="0 0 809 337.8" style="enable-background:new 0 0 809 337.8;" xml:space="preserve">
<style type="text/css">
	.st0{fill:#FD9827;}
	.st1{fill:url(#SVGID_1_);}
	.st2{fill:url(#SVGID_2_);}
	.st3{fill:url(#SVGID_3_);}
</style>
<title>测试logo</title>
<path class="st0" d="M480.9,101.2c-3.2,22-8.5,40.6-16.7,55.9c7.4,11,17.8,19.6,29.8,25.1c-4.8,4.6-9,9.7-12.4,15.4
	c-11.2-5.9-20.8-14.2-28.3-24.4c-8.8,10.7-19.7,19.4-32.1,25.6c-1.5-3.9-6.7-12-10-15.8c13.9-6.4,24.5-15,32.4-25.9
	c-4.7-9.4-8.2-19.8-11.4-31.2c-2.4,4.4-5.2,8.5-8.4,12.4c-3.3-4.1-6.8-8-10.6-11.7c-0.8,42.1-1.5,58.4-5.3,63.6
	c-3,4.2-5.8,5.8-10.1,6.7c-5.4,0.6-10.8,0.8-16.2,0.6c-0.5-5-2.1-11.8-4.7-16.4c4.9,0.3,9.2,0.4,11.7,0.4c1.8,0.2,3.4-0.7,4.3-2.3
	c2-3.3,2.9-16,3.5-51.5h-12.7c-0.1,23.9-3.5,49.1-22.3,69.8c-2.9-3.9-8.8-8.8-13.2-11.8c16.2-18.8,18.5-40.4,18.5-60V96.8h-14.8
	V80.2h29.2c-1.6-6.7-3.7-13.3-6.2-19.7l15.9-3.8c2.8,6.5,5.2,13.1,7.3,19.8l-12.4,3.6h33v16.7h-35v14.8h30c0,0,0,5.2-0.1,7.3v1.2
	c11-15.3,18-38.6,21.6-63l18.3,2.9c-1.4,8.3-3,16.7-5.1,24.5h43.9v16.7H480.9z M443,101.8c2.3,12.5,5.9,24.7,10.8,36.5
	c4.4-10.8,7.4-23,9.4-37.1h-19.9L443,101.8z"/>
<path class="st0" d="M532.1,112.6c-2.1,19.5-5.9,45.7-11,62.8l-18.2-7.3c5.3-16,9.7-38.8,11.7-58.9L532.1,112.6z M560.5,100.3v70.3
	c0,7.1,1.2,8.3,8.5,8.3h21.7c7.6,0,8.9-4.9,10-28.5c4.2,3.2,12,6.4,17,7.6c-2.1,28.8-7,37.7-25.6,37.7h-25.2
	c-19.7,0-25.1-6.1-25.1-25.1v-70.3L560.5,100.3z M559.2,59.6c13.6,8.6,32.9,22,41.9,31.3L587.8,105c-8.2-9.2-26.8-23.6-40.9-33.2
	L559.2,59.6z M625.2,104.4c8.5,18,16.3,40.7,19.5,56.3l-18.3,7.6c-2.3-15.4-10.1-39.4-18-57.1L625.2,104.4z"/>
<path class="st0" d="M736.5,94.5c-0.8,0.9-1.7,1.8-2.6,2.7c13.5,11.8,38,22,61.2,26.7c-3.6,3.3-8.3,9.8-10.8,14.2
	c-10.4-2.7-20.4-6.4-30-11.2v10h-62.2v-9.5c-9.4,4.6-19.1,8.6-29.1,12c-2.8-5.1-6.2-9.9-10.3-14.1c26-7.1,54.5-20.6,69.5-37.8
	l7.9,3.9c-3.8-2.6-8.8-5.9-12-7.7l0.2-0.2H701c2.7,4.7,5.2,9.4,6.2,13.2l-16,4.5c-2.1-6.2-4.7-12.1-7.9-17.8h-1.8
	c-4.5,7.9-9.2,15.1-14.1,20.6c-4.7-3.5-9.6-6.7-14.8-9.4c9.4-9.4,18-24.2,22.7-38.8l16.8,4.4c-1.1,2.9-2.3,5.9-3.6,8.9h32.9v11.4
	c6.5-6.5,11.8-15.6,15-24.7l17,4.2c-1.1,3.1-2.4,6.1-3.9,9.1h41.2v14.2h-22.3c3.3,4.4,6.2,9.2,8.6,14.1l-17.3,3.6
	c-1.8-4.7-5.9-11.8-10.1-17.7h-8.6c-2.3,3.4-4.8,6.5-7.7,9.4L736.5,94.5z M775.7,144.7c-4.5,11.8-9.7,23.2-15.6,34.4h29.8v15.9
	H658.5V179h82.2c7.3-10.8,14.2-25.7,18.8-38.9L775.7,144.7z M687.7,141.7c5.6,7.9,12.6,18.6,15.3,25.7l-15.3,7.3
	c-2.6-7-8.9-18.3-14.4-26.6L687.7,141.7z M745.5,122.1c-7.7-4.5-14.8-9.7-21.3-15.8c-6.9,6-14.4,11.2-22.4,15.8L745.5,122.1z
	 M724.9,139.4c5,8.5,10.9,20.4,13.2,27.9l-15.1,6.1c-2-7.3-7.4-19.5-12.1-28.6L724.9,139.4z"/>
<path class="st0" d="M382.1,222.1l-7.7,25.8h-4.8l-5.1-18.1c-0.2-0.8-0.4-1.6-0.4-2.5H364c-0.1,0.8-0.3,1.6-0.5,2.4l-5.5,18.1h-4.6
	l-7.7-25.8h4.8l5.1,19.1c0.2,0.8,0.3,1.6,0.4,2.4h0.2c0.1-0.8,0.2-1.6,0.4-2.4l5.5-19h4.2l5.4,19.1c0.2,0.8,0.3,1.6,0.4,2.4h0.2
	c0.1-0.8,0.2-1.6,0.4-2.4l5-19.1L382.1,222.1z"/>
<path class="st0" d="M419.7,222.1l-7.7,25.8h-4.8l-5.1-18.1c-0.2-0.8-0.4-1.6-0.4-2.5h-0.1c-0.1,0.8-0.3,1.6-0.5,2.4l-5.5,18.1H391
	l-7.7-25.8h4.8l5.1,19.1c0.2,0.8,0.3,1.6,0.4,2.4h0.2c0.1-0.8,0.2-1.6,0.4-2.4l5.5-19h4.2l5.4,19.1c0.2,0.8,0.3,1.6,0.4,2.4h0.2
	c0.1-0.8,0.2-1.6,0.4-2.4l5-19.1L419.7,222.1z"/>
<path class="st0" d="M457.4,222.1l-7.7,25.8H445l-5.1-18.1c-0.2-0.8-0.4-1.6-0.4-2.5h-0.1c-0.1,0.8-0.3,1.6-0.5,2.4l-5.5,18.1h-4.6
	l-7.7-25.8h4.8l5.1,19.1c0.2,0.8,0.3,1.6,0.4,2.4h0.2c0.1-0.8,0.2-1.6,0.4-2.4l5.5-19h4.2l5.4,19.1c0.2,0.8,0.3,1.6,0.4,2.4h0.2
	c0.1-0.8,0.2-1.6,0.4-2.4l5-19.1L457.4,222.1z"/>
<path class="st0" d="M458.2,245.5c0-1.6,1.3-3,2.9-3c0,0,0.1,0,0.1,0c1.7,0,3,1.3,3,3c0,0.8-0.3,1.5-0.9,2.1
	c-0.6,0.6-1.4,0.9-2.2,0.9c-0.8,0-1.6-0.3-2.1-0.9C458.5,247.1,458.2,246.3,458.2,245.5z"/>
<path class="st0" d="M484.2,213.7c-0.9-0.5-1.8-0.7-2.8-0.7c-2.9,0-4.3,1.8-4.3,5.3v3.8h6v3.8h-6v22h-4.5v-22h-4.4v-3.8h4.4v-4.1
	c-0.1-2.4,0.7-4.8,2.4-6.5c1.6-1.6,3.8-2.4,6.1-2.4c1.1,0,2.1,0.1,3.1,0.4L484.2,213.7z"/>
<path class="st0" d="M488.1,223.9c2.7-1.6,5.8-2.5,8.9-2.4c6.2,0,9.3,3.3,9.3,9.8v16.6h-4.5v-4h-0.1c-1.5,2.9-4.6,4.7-7.9,4.6
	c-2.2,0.1-4.3-0.6-6-2c-1.5-1.4-2.3-3.4-2.2-5.5c0-4.8,2.9-7.6,8.5-8.4l7.6-1.1c0-4.2-1.7-6.3-5.2-6.3c-3.1,0-6.1,1.1-8.5,3.1
	L488.1,223.9z M495.8,235.8c-1.6,0.1-3.1,0.6-4.4,1.6c-0.8,0.9-1.3,2.1-1.2,3.3c0,1.1,0.4,2.2,1.3,3c1,0.8,2.2,1.2,3.5,1.2
	c1.9,0.1,3.7-0.7,4.9-2.1c1.3-1.4,2-3.3,1.9-5.3V235L495.8,235.8z"/>
<path class="st0" d="M535.7,247.9h-4.5v-14.7c0-5.3-1.9-7.9-5.8-7.9c-1.9,0-3.7,0.8-4.9,2.2c-1.3,1.6-2,3.6-1.9,5.7v14.7h-4.6v-25.8
	h4.6v4.3h0.1c1.7-3.1,4.9-5,8.5-4.9c2.5-0.2,4.9,0.8,6.5,2.7c1.5,1.8,2.2,4.5,2.2,7.9L535.7,247.9z"/>
<path class="st0" d="M565.7,245.8c0,9.5-4.6,14.3-13.9,14.3c-2.9,0.1-5.7-0.5-8.3-1.8v-4.4c2.5,1.5,5.4,2.3,8.3,2.4
	c6.3,0,9.4-3.3,9.4-9.9v-2.7H561c-3,4.9-9.4,6.3-14.3,3.3c-0.8-0.5-1.6-1.2-2.2-1.9c-2-2.6-3.1-5.9-2.9-9.2c0-4.4,1.1-7.9,3.2-10.4
	c2.1-2.6,5.3-4,8.6-3.9c3.1-0.2,6.1,1.4,7.6,4.1h0.1v-3.5h4.6V245.8z M561.1,232.6c0-1.9-0.7-3.8-2-5.1c-1.3-1.4-3.1-2.2-5-2.1
	c-2.3-0.1-4.4,0.9-5.8,2.7c-1.5,2.2-2.2,4.8-2.1,7.5c-0.1,2.4,0.6,4.7,2,6.6c1.3,1.7,3.2,2.6,5.3,2.5c2.1,0.1,4.1-0.8,5.5-2.4
	c1.4-1.7,2.2-3.9,2.1-6.1L561.1,232.6z"/>
<path class="st0" d="M593.4,222.1l-8.6,13l8.5,12.8h-5.3l-4.9-8.2c-0.3-0.4-0.6-1.1-1.1-2h-0.1c-0.4,0.7-0.7,1.4-1.2,2l-5,8.2h-5.2
	l8.8-12.6l-8.4-13.1h5.3l4.8,8.6c0.3,0.5,0.7,1.2,1.1,2.1h0.1l6.3-10.7L593.4,222.1z"/>
<path class="st0" d="M597.5,213.1c0-1.6,1.2-2.8,2.8-2.9c0,0,0.1,0,0.1,0c0.8,0,1.5,0.3,2.1,0.8c0.6,0.5,0.9,1.3,0.8,2.1
	c0,0.8-0.3,1.5-0.8,2c-0.6,0.5-1.3,0.8-2.1,0.8c-0.8,0-1.5-0.3-2-0.8C597.8,214.5,597.5,213.8,597.5,213.1z M598,247.9v-25.8h4.6
	v25.8H598z"/>
<path class="st0" d="M632.5,247.9H628v-14.7c0-5.3-1.9-7.9-5.8-7.9c-1.9,0-3.7,0.8-4.9,2.2c-1.3,1.6-2,3.6-1.9,5.7v14.7h-4.6v-25.8
	h4.6v4.3h0.1c1.7-3.1,4.9-5,8.5-4.9c2.5-0.2,4.9,0.8,6.5,2.7c1.5,1.8,2.2,4.5,2.2,7.9L632.5,247.9z"/>
<path class="st0" d="M662.5,259.8h-4.6v-16.2l0,0c-1.8,3.3-4.7,4.9-8.7,4.9c-3,0.1-5.9-1.2-7.8-3.4c-1.9-2.3-2.9-5.4-2.9-9.4
	c0-4.3,1.1-7.7,3.2-10.2c2.1-2.6,5.3-4,8.6-3.8c3.5,0,6,1.4,7.6,4.1h0v-3.5h4.6L662.5,259.8z M657.9,232.7c0.1-1.9-0.6-3.8-1.9-5.2
	c-1.3-1.4-3.2-2.2-5.1-2.2c-2.2-0.1-4.4,0.9-5.7,2.7c-1.4,1.8-2.1,4.3-2.1,7.5c-0.1,2.4,0.6,4.8,2,6.8c1.3,1.6,3.2,2.5,5.2,2.4
	c2.1,0.1,4.2-0.8,5.6-2.4c1.4-1.7,2.1-3.9,2-6.1L657.9,232.7z"/>
<path class="st0" d="M670.1,213.1c0-1.6,1.2-2.8,2.8-2.9c0,0,0.1,0,0.1,0c0.8,0,1.5,0.3,2.1,0.8c0.6,0.5,0.9,1.3,0.8,2.1
	c0,0.8-0.3,1.5-0.8,2c-0.6,0.5-1.3,0.8-2.1,0.8c-0.8,0-1.5-0.3-2-0.8C670.4,214.5,670.1,213.8,670.1,213.1z M670.7,247.9v-25.8h4.6
	v25.8H670.7z"/>
<path class="st0" d="M684,223.9c2.7-1.6,5.8-2.5,8.9-2.4c6.2,0,9.3,3.3,9.3,9.8v16.6h-4.5v-4h-0.1c-1.5,2.9-4.6,4.7-7.9,4.6
	c-2.2,0.1-4.3-0.6-6-2c-1.5-1.4-2.3-3.4-2.2-5.5c0-4.8,2.8-7.6,8.5-8.4l7.6-1.1c0-4.2-1.7-6.3-5.2-6.3c-3.1,0-6.1,1.1-8.5,3.1
	L684,223.9z M691.6,235.8c-1.6,0.1-3.1,0.6-4.4,1.6c-0.8,0.9-1.3,2.1-1.2,3.3c0,1.1,0.4,2.2,1.3,3c1,0.8,2.2,1.2,3.5,1.2
	c1.9,0.1,3.7-0.7,4.9-2.1c1.3-1.4,2-3.3,1.9-5.3V235L691.6,235.8z"/>
<path class="st0" d="M731.5,247.9H727v-14.7c0-5.3-1.9-7.9-5.8-7.9c-1.9,0-3.7,0.8-4.9,2.2c-1.3,1.6-2,3.6-1.9,5.7v14.7h-4.6v-25.8
	h4.6v4.3h0.1c1.7-3.1,4.9-5,8.5-4.9c2.5-0.2,4.9,0.8,6.5,2.7c1.5,1.8,2.2,4.5,2.2,7.9L731.5,247.9z"/>
<path class="st0" d="M737.9,245.5c0-1.6,1.3-3,2.9-3c0,0,0.1,0,0.1,0c1.7,0,3,1.3,3,3c0,0.8-0.3,1.5-0.9,2.1
	c-0.6,0.6-1.4,0.9-2.2,0.9c-0.8,0-1.6-0.3-2.1-0.9C738.1,247.1,737.8,246.3,737.9,245.5z"/>
<path class="st0" d="M768.4,246.8c-2.2,1.2-4.6,1.8-7.1,1.8c-3.4,0.1-6.7-1.2-9-3.6c-2.3-2.5-3.5-5.9-3.4-9.3
	c-0.2-3.7,1.2-7.4,3.7-10.2c2.6-2.6,6.1-4,9.8-3.9c2.1-0.1,4.2,0.4,6.1,1.3v4.5c-1.7-1.3-3.9-2-6.1-2c-2.4-0.1-4.8,0.9-6.4,2.7
	c-1.7,2-2.6,4.6-2.5,7.2c-0.2,2.5,0.7,5.1,2.3,7c1.6,1.7,3.9,2.6,6.3,2.5c2.3,0,4.5-0.8,6.3-2.2L768.4,246.8z"/>
<path class="st0" d="M796.4,247.9h-4.5v-14.7c0-5.3-1.9-7.9-5.8-7.9c-1.9,0-3.7,0.8-4.9,2.2c-1.3,1.6-2,3.6-1.9,5.7v14.7h-4.6v-25.8
	h4.6v4.3h0.1c1.7-3.1,4.9-5,8.5-4.9c2.5-0.2,4.9,0.8,6.5,2.7c1.5,1.8,2.2,4.5,2.2,7.9L796.4,247.9z"/>
<linearGradient id="SVGID_1_" gradientUnits="userSpaceOnUse" x1="0" y1="332.185" x2="313.7" y2="332.185" gradientTransform="matrix(1 0 0 -1 0 368)">
	<stop  offset="0" style="stop-color:#FFDC68"/>
	<stop  offset="1" style="stop-color:#FD9827"/>
</linearGradient>
<polygon class="st1" points="313.7,71.6 0,71.2 59.3,0 256.1,0 "/>
<linearGradient id="SVGID_2_" gradientUnits="userSpaceOnUse" x1="-2624.0366" y1="1351.0216" x2="-2396.7246" y2="1351.0216" gradientTransform="matrix(0.7033 -0.7109 -0.7109 -0.7033 2952.2896 -689.4688)">
	<stop  offset="0" style="stop-color:#FFDC68"/>
	<stop  offset="1" style="stop-color:#FD9827"/>
</linearGradient>
<polygon class="st2" points="313.7,71.6 183.9,262.9 140.6,197.9 225.4,71.1 "/>
<linearGradient id="SVGID_3_" gradientUnits="userSpaceOnUse" x1="3002.8232" y1="1606.2595" x2="3325.4031" y2="1606.2595" gradientTransform="matrix(0.62 0.78 0.78 -0.62 -3103.74 -1299.4999)">
	<stop  offset="0" style="stop-color:#FFDC68"/>
	<stop  offset="1" style="stop-color:#FD9827"/>
</linearGradient>
<polygon class="st3" points="182.9,337.8 0,71.1 89.7,71.3 242.2,281.6 "/>
</svg>
