<svg xmlns="http://www.w3.org/2000/svg" width="182" height="97" viewBox="0 0 182 97">
  <metadata><?xpacket begin="﻿" id="W5M0MpCehiHzreSzNTczkc9d"?>
<x:xmpmeta xmlns:x="adobe:ns:meta/" x:xmptk="Adobe XMP Core 5.6-c138 79.159824, 2016/09/14-01:09:01        ">
   <rdf:RDF xmlns:rdf="http://www.w3.org/1999/02/22-rdf-syntax-ns#">
      <rdf:Description rdf:about=""
            xmlns:xmp="http://ns.adobe.com/xap/1.0/">
         <xmp:CreatorTool>Adobe Photoshop CC 2017 (Macintosh)</xmp:CreatorTool>
      </rdf:Description>
   </rdf:RDF>
</x:xmpmeta>
                                                                                                    
                                                                                                    
                                                                                                    
                                                                                                    
                                                                                                    
                                                                                                    
                                                                                                    
                                                                                                    
                                                                                                    
                                                                                                    
                                                                                                    
                                                                                                    
                                                                                                    
                                                                                                    
                                                                                                    
                                                                                                    
                                                                                                    
                                                                                                    
                                                                                                    
                                                                                                    
                           
<?xpacket end="w"?></metadata>
<defs>
    <style>
      .cls-1 {
        fill: #eaeaea;
        fill-rule: evenodd;
      }
    </style>
  </defs>
  <path id="形状_851" data-name="形状 851" class="cls-1" d="M3260.86,7067.02a0.482,0.482,0,0,0-.72.62,0.928,0.928,0,0,0,.72-0.62h0Zm-19.83,6.43c0.15-.09.4-0.12,0.36-0.32-0.15.09-.41,0.11-0.36,0.32h0Zm1.04-.29c0.15-.09.4-0.11,0.35-0.31-0.14.09-.4,0.12-0.35,0.31h0Zm22.59-6.08c0.15-.09.41-0.12,0.36-0.32-0.15.09-.41,0.13-0.36,0.32h0Zm-7.91-3.73c0.4-.44.9-0.18,0.98-0.48-0.34-.21-1.1-0.05-0.98.48h0Zm-35.05-24.53c0.41,0.43-.37,1.01.28,1.01,0.07-.23.64-1.29-0.28-1.01h0Zm37.92,29.4-0.38.14a0.555,0.555,0,0,0,.38-0.14h0Zm19.9-13.51a1.352,1.352,0,0,1,.18.49,1.822,1.822,0,0,0,.63-0.18,7.942,7.942,0,0,1-.81-0.31h0Zm-23.53-4.82c0.05,0.22.23,0.49,0.26,0.14-0.05-.21-0.23-0.48-0.26-0.14h0Zm-45.57,14.17a1.333,1.333,0,0,1,.63.14c0.19-.49-0.26-0.67-0.7-0.94Zm58.27-46.87a0.836,0.836,0,0,0-.38-0.54l0.08,0.95,0.97-.26a3.82,3.82,0,0,0-.67-0.15h0Zm4.83,4.52-4.66,1.24,0.27,3.17,4.66-1.24Zm0.72,8.33-4.66,1.25,0.25,2.98,4.67-1.24Zm0.7,8.16-4.66,1.23,0.28,3.17,4.66-1.23Zm19.17-17.63-0.55-6.26-3.63.97,0.55,6.26Zm0.44,5.17-3.63.96,0.54,6.26,3.62-.97Zm-15.33,35.89c-0.05.53-.5,0.49-0.55,0.34-0.03-.1.1-0.25,0.55-0.34h0Zm-91.53,25.1c-0.04-.37.23-0.56,0.72-0.63,0.04,0.37-.24.56-0.72,0.63h0Zm66.43-17.47c-0.65-.01-0.05-0.68-0.27-1,0.49-.08.36,0.85,0.27,1h0Zm-72.09,19.42-0.26-1a1.417,1.417,0,0,0,1.07-.08,0.832,0.832,0,0,1-.81,1.08h0Zm124.76-34.9c-0.58-.38.24,0.08,0.23,0.1a0.792,0.792,0,0,1-.23-0.1h0Zm-60.92,16.19c0.32,0.53-.16.6,0.07,1.06a0.531,0.531,0,1,1-.07-1.06h0Zm3.22,0.43c-0.5.89-2.6,1.6-3.06,0.18,1.05-.1.91-0.87,1.96-0.96a1.24,1.24,0,0,0,1.1.78h0Zm59.89-16.78c0.03-.33.17-0.6,0.2-0.93a1,1,0,0,1,.95,1.05,2.834,2.834,0,0,0-1.15-.12h0Zm-71.4,18.58c0.15,0.61-1.08.87-1.08,0.08a1.4,1.4,0,0,1,1.08-.08h0Zm-52.16,14.27-0.11-.4,0.41-.11,0.11,0.41Zm56-14.87c-0.64.4-.75-0.09-0.84-0.64l0.62-.17Zm80.74-22.18-0.17-.61,0.63-.17a1.583,1.583,0,0,1-.04.66Zm-28.64,8.14c-0.42-.85.06-1.22,0.7-1.48a1.4,1.4,0,0,1-.7,1.48h0Zm-99.26,25.66a0.6,0.6,0,1,1,1.04.59c-0.5.06-.99,0.13-1.04-0.59h0Zm44.19-11.9c-0.21-.41.2-0.46,0.52-0.58a0.6,0.6,0,0,1-.52.58h0Zm-30.58,8.24c-0.21-.41.19-0.47,0.51-0.57a0.589,0.589,0,0,1-.51.57h0Zm28.62-8.14c0.02,0.24-.18.17-0.22,0.05-0.01-.24.18-0.17,0.22-0.05h0Zm-33.21,9.16c0.35-.14,1.09-0.07.71-0.62,0.81,0.01.7,1.56,1.37,1.79-0.46.67-1.44-.86-2.17,0.16-0.26-.62.51-0.64,0.09-1.33h0Zm-32.69,9.03c-0.52.19-.91,0.16-0.98-0.39,0.52-.2.9-0.16,0.98,0.39h0ZM3308.54,7052l-0.12-.41,0.42-.11,0.12,0.4Zm-91.74,24.5c0.41-.4-0.25.45-0.28,0.42a2.343,2.343,0,0,1,.28-0.42h0Zm75.4-19.67c-0.73.35-1.01-.07-1.11-0.78a1.129,1.129,0,0,1,1.11.78h0Zm-89.49,24.11c-0.65,0-.04-0.67-0.27-1,0.5-.08.36,0.85,0.27,1h0Zm123.35-33.66-0.23-.81c0.63-.28.98-0.08,1.06,0.58Zm-48.07,12.29c0.62-.67,2.05-0.62,2.3.25a0.577,0.577,0,0,1-.73-0.23c-0.88-.06-1.22.68-1.57-0.02h0Zm-38.77,10.46c-0.22-.41.19-0.46,0.51-0.57a0.6,0.6,0,0,1-.51.57h0Zm-68.39,17.99c0.63,0.24-.16.55-0.26,0.39-0.04-.06.01-0.17,0.26-0.39h0Zm143.74-38.52a0.475,0.475,0,0,1,.77-0.43c-0.01.64-.24,0.32-0.77,0.43h0Zm-8.59,2.97-0.28-1.02c0.79-.42,1.18.99,0.28,1.02h0Zm-71.01,18.27a0.215,0.215,0,0,1-.41.11c0.01-.32.18-0.03,0.41-0.11h0Zm-30.42,7.98c0.48-.36,1.26-0.68,1.4.28-0.54.03-1.24,0.33-1.4-.28h0Zm-14.48,3.68c0.29,0.14.36,0.27,0.32,0.36-0.08.21-.62,0.23-0.32-0.36h0Zm23.82-5.98c0.12-.74.33-0.63,1.13-0.74,0.26,0.61.07,0.95-.61,1.04-0.02-.37-0.26-0.34-0.52-0.3h0Zm-28.5,7.47-0.11-.41,0.41-.1,0.11,0.4Zm-9.2,3.55a1.536,1.536,0,0,1-1-1.23l0.62-.17c0.51,0.27.36,0.92,0.38,1.4h0Zm-11.43,1.79c0.19-.01.18-0.13,0.16-0.25l0.41-.12c0,0.19.13,0.17,0.26,0.15l0.11,0.4c-0.19.01-.18,0.14-0.15,0.26l-0.42.11c-0.01-.18-0.13-0.17-0.26-0.15Zm149.39-39.62a0.687,0.687,0,0,1-.91-0.84c0.56-.06,1.15.43,0.91,0.84h0Zm-120.21,32.4c-0.64.21-.85-0.32-1.09-0.78a0.828,0.828,0,0,1,1.09.78h0Zm32.33-9.79c-0.21-.41.2-0.46,0.52-0.57a0.609,0.609,0,0,1-.52.57h0Zm52.39-13.47c-1.05.58-1.15-.43-1.73-0.63,0.42-.68,1.46.07,1.73,0.63h0Zm-93.07,24.22a0.579,0.579,0,0,1,.5-0.57,0.591,0.591,0,0,1-.5.57h0Zm50.6-14.3c0.03,0.25-.33.28-0.57,0.38-0.03-.25.33-0.28,0.57-0.38h0Zm88.98-24.64c0.07,0.49-.89.36-1.04,0.28,0.01-.64.7-0.06,1.04-0.28h0Zm-53.65,14.68c0.11-.98,1.68-0.61,1.83.16-0.96.54-1.06-.38-1.83-0.16h0Zm-73.02,19.7-0.11-.4,0.41-.12,0.11,0.4Zm-14.84,3.99c-0.2-.4.2-0.46,0.52-0.56a0.582,0.582,0,0,1-.52.56h0Zm35.84-9.01c-0.63.08-.66-0.84-1.16-0.98,0.14-.67,1.04-0.23,1.3-0.14a2.876,2.876,0,0,1-.14,1.12h0Zm7.53-3.33c0.2-.63,1.29.08,1.33-0.79,0.39,0.19-.38,1.39.8,1.3-0.67.92-1.59-.25-2.13-0.51h0Zm8.36-2.62c-0.09.15-.17,0.26-0.03,0.01l-1.45.39c0.24,0.28.5,0.55,0.72,0.83a0.592,0.592,0,0,1-.57-0.5c-0.7.46-.3,1.55-1.28,1.86-0.23-.54.46-1.44-0.23-1.68a0.2,0.2,0,0,1,.08-0.17l-0.78.2c-3.27.87-5.78,0.5-7.53-1.09a15.878,15.878,0,0,1-8.23,5.68,1.229,1.229,0,0,0,.15.66c-1.13.04-.87-1.21-0.25-1.77l-0.27-3.06a5.538,5.538,0,0,0,3.02-5.84l-1.32-15.17-3.44.92-0.46-5.35,7.38-1.96-0.28-.6a1.084,1.084,0,0,1,.9-0.2c0.01-1.2-1.11-.47-1.26-1.39l-0.88.24-0.08-.06a2.726,2.726,0,0,0,.62-1.16l-1.72.46c-0.25-.99-0.51-1.96-0.82-2.9-0.83.76-1.61-.29-2.5-0.09a1.322,1.322,0,0,1,0-.86c0.8-.09,1.54-0.08,1.77.82a0.727,0.727,0,0,1,.57-0.35c-0.32-.93-0.68-1.86-1.06-2.77-0.5.01-.54-0.77-0.71-1.32l0.09-.01c-0.21-.44-0.43-0.87-0.65-1.3a2.449,2.449,0,0,1-2-.8c0.08-1.27,2.79-.02,2.2-1.67,0.29-.1.58-0.2,0.68,0.03,0.79-.53-0.13-2.01,1.42-2.11-1.06.72-.21,2.51-0.58,3.61,0.68-.23,1.22-0.85,1.71-0.25a0.5,0.5,0,0,1-.19.22l1.66-.44a3.2,3.2,0,0,1,.07-0.63,1,1,0,0,0,.67.03,0.428,0.428,0,0,1,0,.4l1.21-.33c0.49,0.79.95,1.59,1.37,2.43a1.277,1.277,0,0,1,.46.57h-0.18a35.253,35.253,0,0,1,2.07,5.78l-4,1.06a3.34,3.34,0,0,0,2.87.08c0.4,0.74-1.05.44-1.07,0.94-0.19,1.18-1.39,1.81-2.35,2.56l4.06-1.07,1.43,16.7,0.82-.22c0.33,0.57-1.04,1.39.27,1.01-0.12.72-.47,1.34-0.54,2.09l-0.11.05c0.8,2.55,2.67,3.49,5.63,2.8l8.81-2.35-0.17-.64a1.4,1.4,0,0,1,.97-0.48,1.158,1.158,0,0,1,.03.91l4.97-1.33-0.12-.46a1,1,0,0,1-.37-0.55c0.73-.17,1.08.33,1.82,0.16l0.01,0.5,8.98-2.39,0.46,5.34c0.17,0.21.37,0.35,0.53,0.58,0.72-.11-0.34.93,0.58,0.49,0.77-.59,2.07-2.07,3.06-1.04,0.12,1.16-1.53,1.32-1.31,2.53,0.75-.09.31-0.86,1.07-0.95,0.54,0.57.4-.66,1.19-0.53,0.06,0.78.59,0.77,0.64,1.56-0.85.27-.9-0.82-1.87-0.36-0.37.65,0.48,0.93,0.8,1.3a3.051,3.051,0,0,0-.77,1.29c0.47,0.01,1.36-.71,1.36.07-0.08.53-.84,0.68-1.55,0.85-0.07-.31-0.64.03-0.21,0.06,0.08,0.39-.65.32-0.45,0.78l2.69-.73a4.307,4.307,0,0,1,.39-1.85c0.73,0.25,1.49-.45,1.93-0.29a3.2,3.2,0,0,1-.04,1.52l60.99-16.43a4.05,4.05,0,0,1,1.09-.94,9.024,9.024,0,0,0-.59-3.77c-0.11-.34-1.09,1.16-1.52.2-0.39-.74.32-0.86,0.29-1.39,0.18-.76,1.05.58,0.79-0.43l-1.67-6.08c-0.04-.73-0.92-0.02-0.9-0.83,0.08-.53.53-0.86,0.23-1.6l-9.94-36.19a1.674,1.674,0,0,1-.7-0.9,0.886,0.886,0,0,1-1-.38l-58.31,15.86a3.751,3.751,0,0,1-.39,1.84,10.2,10.2,0,0,1-1.4-.26c-0.09-.74,1.01-0.8,1.17-1.41l-8.27,2.25c-0.74-.06.02,0.7-0.72,0.64-0.07-.38-0.33-0.42-0.73-0.25l-27.87,7.59c-0.6.07,0.01,0.8-.4,0.97-0.37-.05-0.22-1-0.84-0.63l-6.18,1.68c0.39,0.9.38,2.48,1.02,2.96,0.31-.8,1.06.13,1.4,0.27-0.07-.33-0.21-0.69.25-0.72,0.14,1.69.69-.53,0.89,0.84-0.22.61-1.07-.13-1.71,0.25-0.59.68-1.16,0.44-2.41,0.87-0.2.46-.14,1.06-1.02,1.14a1.3,1.3,0,0,1,.34-1.17c-0.62.26-.77-0.25-0.89-0.84,0.59-.21.76,0.28,1.35,0.06-0.26-1.12-2.03.32-2.09-1.16a4.551,4.551,0,0,1,1.61.22c0.54,0.81.46-.47,1.45-0.39a7.486,7.486,0,0,1-.8-2.16l-5.56,1.51a1.131,1.131,0,0,1-.47.77c-0.59.06,0.47,1.05-.13,1.12-0.62-.34-0.24-0.99-0.44-1.61l-11.32,3.08c-0.73-.07.02,0.7-0.71,0.62-0.07-.36-0.33-0.4-0.73-0.23l-20.94,5.7c-0.58.16,0.63,0.41-.3,0.52a2.305,2.305,0,0,0-1.39.59c-0.1-.24-0.12-0.58-0.37-0.55,0.48,1.06-1.57.71-1.83,1.36-0.38-.46.4-1.04-0.42-0.75-3.56,1.03-6.12,1.66-9.84,2.68-0.61.11-.51,0.62-1.13,0.74,0.21-.44.07-0.51-0.51-0.3l-5.53,1.51a0.872,0.872,0,0,1-.66.83,1.681,1.681,0,0,1-.14,1.11l12.94,48.67a1.01,1.01,0,0,1,.68.9,4.2,4.2,0,0,1,1.4.27l29.41-7.92c0.46-.23-1.18-0.89-0.58-1.35,1.23-.55.73,1.4,1.41,1.13l3.09-.83c-0.12-.7-0.75-1.68.19-1.78,1.04-.27.25,1.91,1.05,1.44a11.8,11.8,0,0,1,2.26-.61c0.18-.75.83-1.24,1.01-2-0.42.01-.72,0.86-0.88,0.02-0.29-.68,1.09-0.42,1.08-0.94-0.3.06-.36-0.46,0.09-0.46,0.41-.78-0.96-0.33-0.99-1.24,1.33-.17.3-1.67,1.47-1.92,0.07,2.06,1.86,1.16,2.11,2.89-0.79.82-1.72,1.55-1.41,2.99,0.73-.33,2.3-0.45,2.88-0.78a3.737,3.737,0,0,1,.52-0.58,1.988,1.988,0,0,0,.31.36,2.924,2.924,0,0,0,.83-0.22c6.44-1.94,14.93-3.88,22.3-6.01,0.73,0.07-.02-0.7.71-0.64,0.07,0.38.34,0.42,0.73,0.25,2.34-.68,5.9-1.46,7.19-2.16-0.26,0-.95-0.68-0.48-0.95,0.62,0.11.74,1.1,1.57,0.88,0.25-.42.91-0.05,1.65-0.45,0.02-.62-0.43-0.44-0.48-0.96,0.78-.02.82,1.19,1.93,0.57,0.63-.33-0.18-1.19.09-1.32,0.96-.06,1.58.46,2.86-0.12,0.26,0.12.26,0.73,0.78,0.44,5.07-1.51,10.81-2.65,15.52-4.36a6.155,6.155,0,0,0-.55-0.33,1.262,1.262,0,0,1-.28-1,3.007,3.007,0,0,1-1.63-1.09,0.9,0.9,0,0,0-.37-0.55l-0.49-1.82a3.909,3.909,0,0,1,1.24-1.92l-8.13,2.16a4.212,4.212,0,0,0-.51,1.98,1.872,1.872,0,0,0,1.37-1.46,4.289,4.289,0,0,1,1.43,1.13c-0.62.36-.58-0.4-1-0.38-0.52.05-.34,0.49-0.98,0.49a1.749,1.749,0,0,0,1.26.52c-0.38.86-1.59-.43-1.92,0.3,0.2,0.73,1.48-.34,1.51.68a7.042,7.042,0,0,0-2.57,1.99c-0.44.16-.29-0.69-0.48-0.96-0.68.37-.11,1.44-1.38,1.46,0.59-1.15.31-2.79,1.72-3.5,0-.51-0.66-1.39-0.24-1.67a0.145,0.145,0,0,0-.09-0.08l-1.03.28a4.961,4.961,0,0,0-.35,1.71c-0.54-.07-0.86-0.5-1.61-0.21-0.19-.44-0.16-0.77.18-0.92,0.57-.37.49,0.35,0.64,0.7a0.72,0.72,0,0,0,.17-1.03l-6.89,1.84a0.57,0.57,0,0,0,.71-0.05c0.27,1.13-1,1-1.75.9a0.815,0.815,0,0,1,.01-0.58l-0.37.09,0.04,0.15-0.41.1-0.04-.13Zm-23.75,6.35c0.17-.02.17-0.14,0.15-0.26a0.822,0.822,0,1,1-.15.26h0Zm-44.95,11.9c0.62-.11.43,0.5,0.23,0.51-0.1.01-.21-0.12-0.23-0.51h0Zm44.12-11.68c-0.21-.41.19-0.46,0.51-0.58a0.591,0.591,0,0,1-.51.58h0Zm27.8-6.21c0.37-.6,1.04-0.24,1.67-0.44,0.37,0.83-.82.8-1.5,1.05Zm-39.35,9.32c-0.02-.41-0.16-0.89.4-0.97,0.2,0.5.15,0.89-.4,0.97h0ZM3319.15,7045c-0.46-.38.01-1.4,0.93-1.56-0.05.67-.07,1.34-0.93,1.56h0Zm-34.36,8.39a0.353,0.353,0,0,1,.03-0.14l-0.26-3c0.91-2.46,1.09-6.03.58-10.71l-2.39-27.63,17.11-4.57,3.06,35.51c0.49,4.41-1.32,7.09-5.46,8.06l-3.83,1.02-0.4-4.78,1.27-.33c1.34-.24,1.89-1.06,1.64-2.51l-0.6-7.16-3.76,1.01a18.659,18.659,0,0,1-6.76,17.44l-0.18-2.21h-0.05Zm-76.27,20.36a2.609,2.609,0,0,1,1.66-.44c0.06,0.49-.62.56-0.35,1.17-0.56-.02-1.17.04-1.31-0.73h0Zm-24.72,6.67,0.11-.16,0.03-.01c-0.06.13-.43,0.71-0.14,0.17h0Zm13.74-3.92a1.094,1.094,0,0,1-.81.12l-16.98,4.52q-7.485,2.385-7.82-5.73l-1.84-21.34,8.7-2.32,0.35,4.19,14.99-4c2.24-.45,3.19-1.79,2.88-3.99l-0.54-6.31-27.57,7.37-0.5-5.74,12.77-3.41a0.7,0.7,0,0,1,.4-0.72c0.38,0.25.16,0.27,0.18,0.57l4.72-1.26a0.334,0.334,0,0,1,.15-0.25,2.385,2.385,0,0,1-1.16-1.84c1.02-.28.6-1.38,1.79-1.57,0.38,1.02-.62,1.25-1.07,1.8,0.39,0.79,1.26.76,1.68,1.49l16.27-4.35,1.14,13.19q1.065,8.025-6.13,9.56l-19.5,5.19,0.93,10.66q0.255,3.06,3.23,2.27l10.49-2.79-0.06-.26a2.3,2.3,0,0,1,.56.13l6.78-1.81c1.87-.37,2.66-1.43,2.39-3.17l-0.23-2.67,4.53-1.2,0.01-.01,1.38-.37a1.014,1.014,0,0,1-.02-0.25c0.17,0.04.36,0.07,0.53,0.12l0.11,0.01a2.272,2.272,0,0,1,1.87,1.8,3.576,3.576,0,0,1-1.66.68l0.12,1.48q0.675,4.71-2.53,6.86a0.84,0.84,0,0,1-.84.73,0.961,0.961,0,0,1-.07-0.2l-0.32.14a1.237,1.237,0,0,1-.02.18,0.31,0.31,0,0,1-.42,0,11.878,11.878,0,0,1-1.85.54l-7.02,1.86Zm63.51-17.79c-0.01.32-.18,0.04-0.41,0.12a0.217,0.217,0,0,1,.41-0.12h0Zm54.78-15.21a0.973,0.973,0,0,1,.72-0.63c0.06,0.37-.23.56-0.72,0.63h0Zm-40.77,11c0.33,0.52.89,0.65,1.06,1.45-1.2.64-1.39-.39-1.85-1.02a2.145,2.145,0,0,1-2.12.36c0.22-1,2.22-.87,2.91-0.79h0Zm44.54-11.15c-0.67-.16.04-0.99-0.45-1.62,1.01-.22,1.11,1.32.45,1.62h0Zm-150.64,38.49c0.63-.11.44,0.49,0.24,0.5-0.1.01-.21-0.11-0.24-0.5h0Zm154.59-40.42c-0.64-.7-0.26-1.56.86-1.76a1.455,1.455,0,0,1-.5,1.44c-0.13.68,0.37,0.65,0.13,1.27-0.62.37-.58-0.41-1.01-0.38a0.609,0.609,0,0,1,.52-0.57h0Zm-6.01.97c-0.67.35-1.02,0.15-1.05-.59l0.83-.22Zm4.83-2.83c0.03,0.25-.33.27-0.57,0.37-0.03-.25.33-0.27,0.57-0.37h0Zm-39.13,10.93a2.269,2.269,0,0,1,.4-0.48c0.5,0.36.41,0.63,0.19,0.91l0.42,4.75a14.72,14.72,0,0,1-2.18-.23,1.047,1.047,0,0,0,.1.62c-0.58.09-.61-0.75-1.11-0.79-1.72.25,0.26,2.55-1.73,2.64a5.373,5.373,0,0,0-.2-2.33c-0.91.17-.35,0.89-0.08,1.32-0.83.33-1.14-.25-1.37-0.93,0.35-.5,1.35-0.62.92-1.55a1.7,1.7,0,0,1,.22-0.04,9.182,9.182,0,0,1-4.72-6.17l6.55-1.74c0.4,2.06,1.27,3.41,2.59,4.02h0Zm24.33-6.93-0.11-.41,0.42-.11,0.11,0.4Zm-148.02,39.3-0.11-.4,0.41-.11,0.11,0.4Zm40.04-12.75c-0.33-.53.15-0.61-0.07-1.07,0.65-.13.73,0.97,0.07,1.07h0Zm104.6-29.12c-0.06-.37.23-0.56,0.72-0.63,0.04,0.37-.23.56-0.72,0.63h0Zm-105.08,28.17c0.42-.41-0.25.43-0.28,0.41a2.681,2.681,0,0,1,.28-0.41h0Zm-41.69,11.47a1.345,1.345,0,0,0,.09-0.46l0.41-.11c0.22,0.4-.18.47-0.5,0.57h0Zm151.83-43.18-0.11-.41,0.42-.11,0.11,0.4Zm-143.44,38.32a1.156,1.156,0,0,1,.14-0.2c0.02,0.01-.46.81-0.14,0.2h0Zm149.78-41.34a1.144,1.144,0,0,0,.09-0.46,0.575,0.575,0,0,1,.59.5,1.68,1.68,0,0,1-.68-0.04h0Zm-120.89,33.11-0.1-.4-0.06-.43c0.49-.18.85-0.13,0.93,0.4a11.829,11.829,0,0,1,1.54-.85c0.35,0.6-.16.71-0.14,1.12-1.03.56-1.21-.3-2.17,0.16h0Zm-30.7,8.07c0.02-.61-0.43-0.44-0.47-0.94,0.43-.07.55,0.43,0.98,0.38-0.03.32-.16,0.59-0.2,0.91,0.08,0.55.85-.06,0.84,0.64-1.22-.17-0.43.62-1.54,0.85,0.48-.9-0.67-0.82-0.84-1.5,0.5-.07.95,0.16,1.23-0.34h0Zm140.84-39.58c-0.15.18-.31,0.35-0.42,0.12a0.222,0.222,0,0,1,.42-0.12h0Zm7.94-3.67a3.455,3.455,0,0,1,1.19-.54c0.68,0.91-1.12,1.51-1.19.54h0Zm-85.27,23.06c-0.15.17-.3,0.34-0.41,0.11a0.216,0.216,0,0,1,.41-0.11h0Zm75.07-20.3c0.73-.22,1.71-0.31,1.5-1.06,1.42,0.51-1.41,1.16-.7,2.36-0.6.14-.61-0.74-0.8-1.3h0Zm-140.67,37.61-0.11-.4,0.41-.12,0.11,0.41Zm145.65-39.82-0.22-.81,0.42-.12,0.22,0.81Zm13.81-3.52c-0.7.39-.51-0.72-0.75-1.1,0.53-.12.6,0.57,0.75,1.1h0Zm-14.71,2.67c0.62,0.24-.16.54-0.27,0.39-0.04-.06.01-0.18,0.27-0.39h0Zm11.4-3.3c-0.2-.86.82-1.04,1.4-1.46a1.114,1.114,0,0,1-1.4,1.46h0Zm-62.75,16.98c-0.7-.08-0.07-0.81-0.07-1.07,0.61,0.04-.02.76,0.07,1.07h0Zm59.54-18.07c0.64-.11.45,0.51,0.24,0.52-0.1,0-.21-0.13-0.24-0.52h0Zm-152.75,43.28c-1.17.68-1.8-.68-1.51-1.54l0.62-.16a1.934,1.934,0,0,1,.89,1.7h0Zm94.57-28.4c0.62,0.24-.16.54-0.27,0.39-0.04-.06.02-0.18,0.27-0.39h0Zm-95.73,25.7a1.035,1.035,0,0,0,.04-0.66c0.53-.22.75,0.09,0.83,0.63a1.379,1.379,0,0,1-.87.03h0Zm144.35-40.38c-0.05-.37.23-0.55,0.72-0.63a0.974,0.974,0,0,1-.72.63h0Zm-53.71,14.76c0.81-.29,2.21-0.25,1.64-1.31a9.572,9.572,0,0,1,2.74-.53c0.51,1.14.31,1.88-.48,2.29a1.576,1.576,0,0,1-1.57-.87c-0.78.46-1.69,1.7-2.33,0.42h0Zm53.52-16.23c0.31,0.12.37,0.26,0.33,0.35-0.08.21-.63,0.23-0.33-0.35h0Zm-79.09,20.98c-0.2-.62.34-0.83,0.81-1.08a0.836,0.836,0,0,1-.81,1.08h0Zm-66.2,16.64c-0.01.32-.19,0.02-0.41,0.11-0.02-.26.36-0.32,0.41-0.11h0Zm1.08-.08a1.562,1.562,0,0,1,.04-1.52c0.39,0.08.52,1.42-.04,1.52h0Zm-0.29-2.73a0.634,0.634,0,0,1,.15-0.19c0.02,0.01-.46.8-0.15,0.19h0Zm142.89-38.28c0.01-1.16,2.17-.09,1.85-1.38,0.39-.04.57,0.23,0.64,0.7a3.683,3.683,0,0,1-2.49.68h0Zm2.69-1.6a1.712,1.712,0,0,0,.1-0.46l0.42-.12c0.21,0.41-.2.47-0.52,0.58h0Zm-150.31,39.45c-0.05-.37.23-0.56,0.71-0.63a0.958,0.958,0,0,1-.71.63h0Zm1.84-1.37c0.02,0.25-.18.17-0.21,0.06-0.02-.23.17-0.16,0.21-0.06h0Zm96.88-26.49a1.612,1.612,0,0,0-.29.09,0.266,0.266,0,0,1,.24-0.26Zm-64.43,16.83c0.39,0.15.21,0.33,0.01,0.4l-0.17-.25Zm122.71-35.01c-0.09-.45.4-0.58,0.93-0.68,0.09,0.44-.4.57-0.93,0.68h0Zm-58.58,17.4c-0.95.05-1.14-.73-1.11-1.64,0.83-.23.85,0.89,1.11,1.64h0ZM3226,7038.3c-0.05-.36.23-0.55,0.71-0.62a0.93,0.93,0,0,1-.71.62h0Zm25.36-7.09-0.1-.4,0.41-.12,0.11,0.4Zm62.85-17.27a0.618,0.618,0,0,1,.52-0.58,0.6,0.6,0,0,1-.52.58h0Zm0.94-.68a1.7,1.7,0,0,0,.1-0.47l0.41-.11c0.22,0.41-.19.47-0.51,0.58h0Zm-3.66.55c-0.41-.4.46,0.23,0.44,0.26a2.213,2.213,0,0,1-.44-0.26h0Zm-59.66,16.62a0.922,0.922,0,0,1-.38-0.54l0.63-.17,0.16,0.6Zm-98.42,26.05c0.14,0.08-.08.3-0.15,0.26-0.13-.07.08-0.29,0.15-0.26h0Zm156.78-42.53a0.628,0.628,0,0,1,.15-0.2c0.01,0-.47.81-0.15,0.2h0Zm-151.13,42.3c-0.01-.82-0.24-0.95-0.17-1.47l0.41-.11a1.58,1.58,0,0,1,1.66,1.28c1.04-.05.66-0.88,0.44-1.63,1.37-.33.25,1.29,0.85,1.5,0.86-.06.22-1.4,1.06-0.95,0.22,0.84-1.09,2.67.49,2.67,0.31,0.51-.29.52-0.19,0.92,0.51,1.27,1.8,1.24,2.09,2.89-1.08.36-.75-1.65-2.02-0.96-0.31-1.62-.99-2.61-2.23-2.63l-0.27-1.01c-0.15-.43-0.9.15-1.29,0.14-0.5-.17.21-1.09-0.83-0.64h0Zm1.06-1.8c-0.2-.41.2-0.47,0.51-0.56a0.58,0.58,0,0,1-.51.56h0Zm-3.94,1.71c-0.16.17-.47-1.15,0.14-1.11,0.35,0.59-.15.7-0.14,1.11h0Zm4.75-2.79c-0.42-.22-0.13-0.8-0.11-1.27l0.61-.16c0.13,0.65.18,1.23-.5,1.43h0Zm-2.67-.13-0.11-.41,0.41-.11,0.11,0.4Zm-1.18.53c-0.4-.05-0.13-0.36-0.16-0.61,0.41,0.05.13,0.36,0.16,0.61h0Zm-7.84,1.9c-0.05-.36.23-0.55,0.71-0.62,0.05,0.38-.23.56-0.71,0.62h0Zm161.7-43.88c-0.68.33-.93-0.5-0.69-0.9,0.46-.09.58,0.39,0.69,0.9h0Zm-116.72,52.67,0.15,1-0.01.02Zm-29.37-7.02a0.481,0.481,0,0,1-.42-0.06c-0.13-.26.05-0.36,0.25-0.45Zm-8.75-4.05c-1.11-.04-0.29-1.94.5-1.43a5.773,5.773,0,0,1-.5,1.43h0Zm154.46-43.02c-0.58.37-.5-0.35-0.64-0.69,0.37-.05.57,0.22,0.64,0.69h0Zm-2,5.75c0.59-.06.18,0.64-0.31,0.53a1.759,1.759,0,0,0,.31-0.53h0Zm-1.1.09c0.8-.02.13-0.98-0.07-1.07-0.33-.02-0.87.21-1.36,0.19l-0.04-.77c0.08,0.16.16,0.32,0.24,0.46a1.131,1.131,0,0,0,.24-1.59c0.54,0.24,1.8.3,1.61-.65,0.95,0.01.21,0.83,0.39,1.42,0.08,0.66,1.06-.22,1.06.58l-0.63.17c0.09,0.82,1,.28,1.32.73,0.71-.01.28-0.64,0.67-0.84,0.3,0.57.39-.31,0.82-0.22-0.33.54,0.27,0.55,0.34,1.21-0.49.07-.77,0.26-0.72,0.63-0.88-.04-1.02-0.65-1.68-0.41a1.312,1.312,0,0,0-1.78.05c-0.23.84,1.54,1.32,2.36,0.44,0.39,0.95-.48,1.22-0.86,1.75-0.57-.01-0.76-0.68-1.16-0.98a0.766,0.766,0,0,1-.75-1.1h0Zm-1.25,2.66c0.08,0.3.15,0.59,0.21,0.88l-0.17.04Zm-2.33,26.75,0.01,0.02-0.16.04Zm-0.18-34.24a1.106,1.106,0,0,1-.09-1.07,1.013,1.013,0,0,1,.68,1Zm-47.98,12.15c0.42-.41-0.24.44-0.26,0.42a1.66,1.66,0,0,1,.26-0.42h0Zm-26.08,11.84a0.844,0.844,0,0,1,.81-0.07l-0.04.53c-0.21.3-.64,0.44-0.77-0.46h0Zm-1.1,24.29a1.009,1.009,0,0,1-.98.07,1.127,1.127,0,0,1,1.11-.97Zm23.14-15.12c0.18-.01.3,0.06,0.29,0.36a1.036,1.036,0,0,1-.24.09l0.06,0.82-0.04-.02,0.05,0.07,0.15,1.79c0.39,4.6-1.53,7.45-5.77,8.59l-8,2.12-0.46-5.34,4.72-1.25a2.168,2.168,0,0,0,1.65-2.59l-1.52-17.45-15.27,4.08-0.48-5.54,15.27-4.08-0.2-2.37-0.07.02a0.279,0.279,0,0,1,.06-0.18l-0.21-2.43,7.82-2.09,0.43,4.97,4.91-1.32,0.48,5.54-4.92,1.31Zm0.11,1.27a1.321,1.321,0,0,0,.86-0.01,1.371,1.371,0,0,0,1.27.53c-0.18,1.13-1.27.15-1.77,0.05a2.485,2.485,0,0,1,.41.65l-0.76-1.17-0.05-.07Zm1.58,2.41a8.072,8.072,0,0,0,2.64-.72c0.72,0.32.04,1.29,0.64,1.56a1.073,1.073,0,0,0,1.15.12c0.93-.22.19-1.38,0.86-1.75,0.71,0.58.01,1.83-.23,2.45a1.1,1.1,0,0,0,1.15-.11l0.11,1.08a2.025,2.025,0,0,0-.61.59c0.06,0.29.38,0.14,0.68,0.03l0.05,0.43a1.533,1.533,0,0,0-.35.95,3.343,3.343,0,0,0-2.61-.59,1.763,1.763,0,0,1-.35.31l0.02,0.18Zm5.85-1.85-0.28-1.21,0.22,0.6Zm1.27,9.52a0.21,0.21,0,0,1-.06-0.24Zm-12.26,1.7a0.4,0.4,0,0,1-.4-0.07l-0.11-.41Zm-34.86,4.6a2.845,2.845,0,0,1-3.18-.35c-0.11-.7,1.11-0.64,1.75-0.91l-0.05-.31Zm-5.3-.12c0.07,0.25.14,0.5,0.2,0.75h-0.01l-0.16-.44Zm2.09,0.25,0.11-.03v0.04Zm-10.02,5a7.066,7.066,0,0,0-.5-1.12c-1.12,0-.32,1.08-1.22,1.19-0.11-.6-0.64-0.49-0.74-1.09-0.51-.69.91-0.29,0.41-0.97-0.45-.67-0.68,1.06-1.24.33-0.11-1.45,1.42-.73,2.41-0.88,0.28-.65-0.33-1.82-0.54-2.76l1.1,3.37Zm-1.52-5.59c-0.79.45,0.03,0.97-.2,1.56-0.18-.13-1.27-0.14-1.23.33-0.63-.69.42-1.84,1.31-2.28Zm12.57-24.97a0.977,0.977,0,0,1-.12-0.45,0.563,0.563,0,0,1,.75.44h-0.46Zm1.26,0a0.919,0.919,0,0,1,.84-0.41c-0.54-1.15.29-1.55,1.27-1.86-0.49.67-.32,1.71-0.97,2.3Zm-1.91-.75a3.52,3.52,0,0,0,.25-0.71c0.54-.06.22,0.78-0.25,0.71h0Zm95.49-27.45c0.29,0.13.36,0.26,0.33,0.36-0.08.2-.63,0.23-0.33-0.36h0Zm-47.83,13.43c-0.06-.29-0.12-0.58-0.37-0.55a1.986,1.986,0,0,1,1.95-.06l-0.12-1.45,2-.53-0.26-3.06,6.73-1.8,0.15,1.68,0.55-.15c0.32,0.12.44,0.58,0.9,0.84a2.11,2.11,0,0,0,.57.18l2.76-.74-0.26-3.06,6.73-1.8,0.26,3.07,2.01-.54,0.46,5.35-2.01.54,1.7,19.66,2.19-.58,0.46,5.35-23.05,6.13-0.46-5.34,2.73-.73-1.7-19.65-2,.53-0.25-2.83a1.5,1.5,0,0,0-.58-0.54c-0.54.33-.61-0.13-1.09,0.08h0Zm-34.32,8.46c0.62-.11.44,0.51,0.23,0.52-0.1,0-.2-0.13-0.23-0.52h0Zm-10.11,2.74-0.11-.4,0.62-.17,0.11,0.41Zm-54.11,16.22a1.984,1.984,0,0,1,2.23-2.34c0.21,0.87-.37,1.28-1.11,1.6,0.22,0.38.72,0.23,0.42,0.75-0.64.21-.83-0.35-1.54-0.01h0Zm76.96-22.64c-0.18-.67.49-0.87,0.24-1.57,0.97,0.13.68,0.91,0.7,1.75-0.52.3-.52-0.28-0.94-0.18h0Zm15.13-5.63c-0.48-.36-1.53.23-1.57-0.87,0.71-.6,1.71.71,1.65-0.44,1.1,0.17.23,1.54,0.4,2.27-0.38.2-.92-0.74-0.48-0.96h0Zm-13.3,2.54c0.01,0.39-1.32,1.24-1.3.14a1.825,1.825,0,0,1,1.3-.14h0Zm-25.84,7.67c0.44-.21-0.29-1.07.09-1.32,0.61-.35.72,0.14,1.13,0.13a0.883,0.883,0,0,1-.19.91c0.13,0.76,1.13.04,1.15,0.98-1.07.37-2.45-.76-2.68,0.73-0.65-.01-0.05-0.68-0.28-1-0.64.2-.41,0.9-1.01,1.14-0.44-.88.25-1.12-0.08-1.93,0.73-.05,1.18.36,1.87,0.36h0Zm38.8-12.27a1.266,1.266,0,0,1-.01-0.86c0.37-.06.56,0.21,0.63,0.69Zm-13.95,4.22c-1.02-1.54,1.85-2.05,2.01-.77a1.413,1.413,0,0,1-1.35-.06c-0.38.19,0.05,0.83-.66,0.83h0Zm-2.86-.73a5.483,5.483,0,0,0,2.01-.77c0.69,0.56-.03,1.5-0.08,2.19-0.86.38-1.08-.33-1.81-0.16-0.14-.48.19-0.69-0.12-1.26h0Zm-17.27,5.77c-0.67-.16.24-0.87,0.09-1.32,0.63,0.15-.1.96-0.09,1.32h0Zm-32.59,7.78a1.156,1.156,0,0,1,.14-0.2c0.02,0.01-.46.81-0.14,0.2h0Zm-0.52.57c-0.66.35-1,.16-1.03-0.58l0.82-.22Zm26.64-8.54c0.14,0.08-.08.3-0.15,0.26-0.13-.07.08-0.29,0.15-0.26h0Zm41.67-10.67c0.66,0.46,1.01-.26.89,0.83,0.68-.02.7-0.41,1.19-0.54a3.308,3.308,0,0,0,.18,1.47c0.08,0.54.84-.06,0.84,0.64-0.44.69-.95-0.13-1.71,0.25,0.77-1.04-.52-1.51-1.48-1.34-0.19-.75-0.28-1.67-1.21-1.18a5.554,5.554,0,0,0,.25-0.72,1.273,1.273,0,0,0,.68.03,4.942,4.942,0,0,1,.37.56h0Zm-74.79,19.68c0.57-.13.33-0.44,0.82-0.22a0.45,0.45,0,1,1-.82.22h0Zm36.73-10.41a1.083,1.083,0,0,1,.14-0.21c0.02,0.01-.46.81-0.14,0.21h0Zm-2.32,1.27c-0.1-.4.49-0.41,0.2-0.92,0.64-.2.84,0.33,1.09,0.78-0.58.33-.81,0-1.29,0.14h0Zm-56.92,15.48c-0.34-.7.09-0.98,0.81-1.07,0.19,0.61-.34.82-0.81,1.07h0Zm35.79-11.89c0.14,0.08-.08.3-0.15,0.26-0.13-.08.08-0.3,0.15-0.26h0Zm-3.07,1.7c-0.16-.66,1.19-0.47.76-1.29,1.09,0.18.22,1.55,0.39,2.27-0.65-.37-0.75.45-1.39,0.59-0.27-.72.29-0.98,0.76-1.28a0.612,0.612,0,0,0-.52-0.29h0Zm40.87,5.67,6.91-1.84a61.191,61.191,0,0,1,4.07,10.44l-7.27,1.94a81.338,81.338,0,0,0-3.71-10.54h0Zm43.83,9.62q-0.78,8.415-9.71,12.75l-0.39-4.59a8.351,8.351,0,0,0,3.54-6.42Zm0,0" transform="translate(-3146 -6998)"/>
</svg>
