<?xml version="1.0" encoding="utf-8"?>
<!-- Generator: Adobe Illustrator 21.0.0, SVG Export Plug-In . SVG Version: 6.00 Build 0)  -->
<svg version="1.1" id="图层_1" xmlns="http://www.w3.org/2000/svg" xmlns:xlink="http://www.w3.org/1999/xlink" x="0px" y="0px"
	 viewBox="0 0 262 206" style="enable-background:new 0 0 262 206;" xml:space="preserve">
<style type="text/css">
	.st0{clip-path:url(#SVGID_2_);}
</style>
<g>
	<g>
		<defs>
			<rect id="SVGID_1_" x="15.9" y="26.4" width="227.8" height="164.8"/>
		</defs>
		<clipPath id="SVGID_2_">
			<use xlink:href="#SVGID_1_"  style="overflow:visible;"/>
		</clipPath>
		<path class="st0" d="M228.7,188.8h-37.9v-6.3h31.6c7,0,12.6-5.7,12.6-12.6V43.3c0-7-5.7-12.6-12.6-12.6h-88.5v-6.3h94.9
			c7,0,12.6,5.7,12.6,12.6v139.1C241.4,183.1,235.7,188.8,228.7,188.8L228.7,188.8z M216.1,62.3h-75.9V56h75.9V62.3z M216.1,106.5
			h-55.1v-6.3h55.1V106.5z M216.1,150.8h-37.9v-6.3h37.9V150.8z M216.1,150.8"/>
	</g>
	<path d="M171.7,188.8h-6.3c-1.7-38.7-33.5-69.6-72.6-69.6s-70.9,30.9-72.6,69.6h-6.3c1.4-35.1,25.7-64.3,58.4-73.1
		c-15.8-6.8-26.9-22.4-26.9-40.7c0-24.4,19.8-44.3,44.3-44.3c24.4,0,44.3,19.8,44.3,44.3c0,17.4-10.1,32.4-24.7,39.7
		C143.9,121.9,170.2,152.1,171.7,188.8L171.7,188.8z M127.5,74.9c0-21-17-37.9-37.9-37.9c-21,0-37.9,17-37.9,37.9
		c0,21,17,37.9,37.9,37.9C110.6,112.9,127.5,95.9,127.5,74.9L127.5,74.9z M127.5,74.9"/>
</g>
</svg>
