<?xml version="1.0" encoding="utf-8"?>
<!-- Generator: Adobe Illustrator 21.0.0, SVG Export Plug-In . SVG Version: 6.00 Build 0)  -->
<svg version="1.1" id="图层_1" xmlns="http://www.w3.org/2000/svg" xmlns:xlink="http://www.w3.org/1999/xlink" x="0px" y="0px"
	 viewBox="0 0 236 278" style="enable-background:new 0 0 236 278;" xml:space="preserve">
<style type="text/css">
	.st0{clip-path:url(#SVGID_2_);}
</style>
<g>
	<g>
		<defs>
			<rect id="SVGID_1_" x="9.4" y="20.5" width="210.7" height="238.6"/>
		</defs>
		<clipPath id="SVGID_2_">
			<use xlink:href="#SVGID_1_"  style="overflow:visible;"/>
		</clipPath>
		<path class="st0" d="M56,36.5v11.8c-0.7,0-1.3,0-1.9,0c-4.3,0.1-8.7-0.1-13,0.3C30.3,49.7,21.8,59,21.2,70
			c-0.1,1.6-0.1,3.1-0.1,4.7c0,47.2,0,94.3,0,141.5c0,4.7,0.5,9.3,2.6,13.5c5.5,11.3,14.7,17.3,27.3,17.3c42.4,0.1,84.9,0.1,127.3,0
			c13.4,0,24.2-7.6,28.3-20.1c1.1-3.1,1.5-6.6,1.5-10c0.1-48.2,0.1-96.3,0.1-144.5c0-11.1-5.8-19.6-15.7-22.9
			c-2.6-0.9-5.4-1.1-8.1-1.3c-3.2-0.2-6.4,0-9.5-0.1c-0.5,0-1,0-1.6-0.1V36.9c11.8-0.6,23.5-0.7,33.4,7.3
			c7.9,6.4,12.3,14.7,13.1,24.8c0.2,2.6,0.2,5.2,0.2,7.8c0,46.6,0,93.2,0,139.8c0,12.8-4.6,23.6-14.2,32.1c-7.8,6.8-17,10-27.2,10
			c-42.4,0-84.9,0.2-127.3-0.1c-17.7-0.1-30.5-8.6-38.1-24.6c-2.5-5.3-3.4-11-3.4-16.9c0-48.3-0.1-96.5,0-144.8
			c0-13.5,5.8-24.1,17.6-31.1c3.6-2.1,7.4-3.7,11.6-4C44.4,36.8,50.2,36.8,56,36.5L56,36.5z M82.3,20.5h64.6v10.6h-26.8v10.9h21.5
			v10.7H87.7V42.1h21.5V31.3H82.3C82.3,27.6,82.3,24.1,82.3,20.5L82.3,20.5z M59.1,105.3c0-3.3,0-6.6,0-9.9c0-0.2,0.5-0.6,0.8-0.7
			c0.3-0.1,0.8,0,1.1,0h108.9v10.6L59.1,105.3z M59.2,142.5v-10.5H170v10.5H59.2z M170,169.2v10.5H59.2v-10.5H170z M170,169.2"/>
	</g>
</g>
</svg>
