<?xml version="1.0" encoding="utf-8"?>
<!-- Generator: Adobe Illustrator 21.0.0, SVG Export Plug-In . SVG Version: 6.00 Build 0)  -->
<svg version="1.1" id="图层_1" xmlns="http://www.w3.org/2000/svg" xmlns:xlink="http://www.w3.org/1999/xlink" x="0px" y="0px"
	 viewBox="0 0 278 281.3" style="enable-background:new 0 0 278 281.3;" xml:space="preserve">
<g>
	<path d="M134.8,7.5c-72.8,0-132,59.2-132,132c0,72.8,59.2,132,132,132c72.8,0,132-59.2,132-132C266.8,66.8,207.6,7.5,134.8,7.5
		L134.8,7.5z M134.8,255c-63.7,0-115.5-51.8-115.5-115.5C19.3,75.8,71.1,24,134.8,24c63.7,0,115.5,51.8,115.5,115.5
		C250.3,203.2,198.5,255,134.8,255L134.8,255z M134.8,255"/>
	<path d="M186,172c4.7,0,8.9,3,8.9,7.2c0,3.6-4.2,6.8-8.9,6.8h-43.9v24.7c0,3.6-3.6,6.8-9.2,6.8c-5,0-8.9-3.2-8.9-6.8V186H80.2
		c-4.7,0-8.7-3.2-8.7-7.2c0-3.8,3.9-6.8,8.7-6.8H124v-21.3H80.2c-4.7,0-8.7-2.8-8.7-7.2c0-3.6,3.9-6.6,8.7-6.6h37.2L79,80.5
		c-2.5-3.2-0.8-7.2,4.2-9.1c4.2-1.5,9.5-0.2,11.7,2.8l38.6,56.6l38.3-56.8c2.2-3.2,7.8-4.7,12-2.5c4.7,1.5,6.1,5.7,3.9,8.9V80
		l-38.3,56.8H186c4.7,0,8.9,3,8.9,7c0,4-4.2,6.8-8.9,6.8h-43.9V172L186,172L186,172z M186,172"/>
</g>
</svg>
