<svg xmlns="http://www.w3.org/2000/svg" width="150" height="150" viewBox="0 0 50 50">
  <metadata><?xpacket begin="﻿" id="W5M0MpCehiHzreSzNTczkc9d"?>
<x:xmpmeta xmlns:x="adobe:ns:meta/" x:xmptk="Adobe XMP Core 5.6-c138 79.159824, 2016/09/14-01:09:01        ">
   <rdf:RDF xmlns:rdf="http://www.w3.org/1999/02/22-rdf-syntax-ns#">
      <rdf:Description rdf:about=""
            xmlns:xmp="http://ns.adobe.com/xap/1.0/">
         <xmp:CreatorTool>Adobe Photoshop CC 2017 (Macintosh)</xmp:CreatorTool>
      </rdf:Description>
   </rdf:RDF>
</x:xmpmeta>
                                                                                                    
                                                                                                    
                                                                                                    
                                                                                                    
                                                                                                    
                                                                                                    
                                                                                                    
                                                                                                    
                                                                                                    
                                                                                                    
                                                                                                    
                                                                                                    
                                                                                                    
                                                                                                    
                                                                                                    
                                                                                                    
                                                                                                    
                                                                                                    
                                                                                                    
                                                                                                    
                           
<?xpacket end="w"?></metadata>
<defs>
    <style>
      .cls-1 {
        fill: #fd9827;
        fill-rule: evenodd;
      }
    </style>
  </defs>
  <path id="形状_657" data-name="形状 657" class="cls-1" d="M880.027,297.992a24.194,24.194,0,0,1,9.719,1.959,25.054,25.054,0,0,1,7.928,5.365,25.488,25.488,0,0,1,5.36,7.949,25.026,25.026,0,0,1,0,19.446,25.411,25.411,0,0,1-5.36,7.978,25.124,25.124,0,0,1-7.928,5.366,25.175,25.175,0,0,1-19.468,0,25.079,25.079,0,0,1-7.951-5.366,25.4,25.4,0,0,1-5.36-7.978,24.991,24.991,0,0,1,0-19.446,25.471,25.471,0,0,1,5.36-7.949,25.01,25.01,0,0,1,7.951-5.365,24.422,24.422,0,0,1,9.749-1.959h0ZM895.706,318.2a3.625,3.625,0,0,0,1.084-2.526,3.236,3.236,0,0,0-.97-2.526,3.309,3.309,0,0,0-2.507-.994,3.527,3.527,0,0,0-2.509,1.049l-16.078,16.012-5.53-5.449a3.514,3.514,0,0,0-2.509-1.051,3.32,3.32,0,0,0-2.508.993,3.386,3.386,0,0,0-1.053,2.413,3.184,3.184,0,0,0,1,2.414l7.924,7.948a3.532,3.532,0,0,0,2.679.993,3.716,3.716,0,0,0,2.679-1.05l-0.227.228L895.706,318.2h0Z" transform="translate(-855 -298)"/>
</svg>
