<svg xmlns="http://www.w3.org/2000/svg" xmlns:xlink="http://www.w3.org/1999/xlink" width="29" height="29" viewBox="0 0 29 29">
  <metadata><?xpacket begin="﻿" id="W5M0MpCehiHzreSzNTczkc9d"?>
<x:xmpmeta xmlns:x="adobe:ns:meta/" x:xmptk="Adobe XMP Core 5.6-c138 79.159824, 2016/09/14-01:09:01        ">
   <rdf:RDF xmlns:rdf="http://www.w3.org/1999/02/22-rdf-syntax-ns#">
      <rdf:Description rdf:about=""/>
   </rdf:RDF>
</x:xmpmeta>
                                                                                                    
                                                                                                    
                                                                                                    
                                                                                                    
                                                                                                    
                                                                                                    
                                                                                                    
                                                                                                    
                                                                                                    
                                                                                                    
                                                                                                    
                                                                                                    
                                                                                                    
                                                                                                    
                                                                                                    
                                                                                                    
                                                                                                    
                                                                                                    
                                                                                                    
                                                                                                    
                           
<?xpacket end="w"?></metadata>
<defs>
    <style>
      .cls-1 {
        fill-rule: evenodd;
        filter: url(#filter);
      }
    </style>
    <filter id="filter" x="495" y="313" width="29" height="29" filterUnits="userSpaceOnUse">
      <feFlood result="flood" flood-color="#fff"/>
      <feComposite result="composite" operator="in" in2="SourceGraphic"/>
      <feBlend result="blend" in2="SourceGraphic"/>
    </filter>
  </defs>
  <path id="员工管理" class="cls-1" d="M509.5,342A14.5,14.5,0,1,1,524,327.5,14.516,14.516,0,0,1,509.5,342h0Zm0-27.625A13.124,13.124,0,1,0,522.623,327.5,13.138,13.138,0,0,0,509.5,314.376h0Zm-3.521,6.856a2.473,2.473,0,0,1,.748-1.175,2.361,2.361,0,0,1,.8-0.429,5.989,5.989,0,0,1,1.017-.249,6.5,6.5,0,0,1,.986-0.079,3.132,3.132,0,0,1,.708.059,2.065,2.065,0,0,1,.418.17,1.448,1.448,0,0,1,.25.169,1.9,1.9,0,0,1,.149.149,0.574,0.574,0,0,0,.12.11,0.3,0.3,0,0,0,.258.05,1.683,1.683,0,0,1,.558.05h0a1.274,1.274,0,0,1,.758.488,1.739,1.739,0,0,1,.338.967c0,0.119.007,0.305,0.02,0.557s0.02,0.519.02,0.8-0.01.532-.03,0.758a0.78,0.78,0,0,1-.109.418,0.286,0.286,0,0,1-.229.13,0.092,0.092,0,0,0-.11.109c0,0.04-.01.18-0.03,0.419a8.159,8.159,0,0,1-.169,1,2.369,2.369,0,0,1-.229.608,4.781,4.781,0,0,1-.309.488q-0.2.24-.4,0.439c-0.013.173-.02,0.338-0.02,0.5v0.419a2.211,2.211,0,0,0,.02.338,0.529,0.529,0,0,0,.12.339,0.931,0.931,0,0,0,.4.179c0.067,0.027.186,0.067,0.359,0.12s0.379,0.123.618,0.209l0.747,0.269,0.747,0.269c0.24,0.087.452,0.166,0.638,0.24s0.326,0.129.418,0.169a1.247,1.247,0,0,1,.529.418,2.541,2.541,0,0,1,.229.558c0.026,0.12.063,0.339,0.109,0.658s0.1,0.651.15,1,0.1,0.671.129,0.977,0.057,0.5.07,0.578a0.716,0.716,0,0,1-.09.438,0.8,0.8,0,0,1-.508.279q-0.339.079-.986,0.17t-1.5.169q-0.857.079-1.883,0.13t-2.162.049q-1.136,0-2.172-.039t-1.9-.11c-0.578-.046-1.09-0.1-1.535-0.159a8.951,8.951,0,0,1-1.046-.19,1.063,1.063,0,0,1-.2-0.079,1.218,1.218,0,0,1-.229-0.15,0.607,0.607,0,0,1-.17-0.219,0.523,0.523,0,0,1-.04-0.289c0.014-.093.05-0.3,0.11-0.628s0.13-.674.209-1.046,0.153-.721.22-1.046,0.112-.528.139-0.608a2.8,2.8,0,0,1,.229-0.5,1.988,1.988,0,0,1,.508-0.537,2.392,2.392,0,0,1,.658-0.3c0.319-.106.651-0.207,1-0.3s0.671-.173.977-0.239,0.5-.113.6-0.14a3.158,3.158,0,0,0,.528-0.149,0.287,0.287,0,0,0,.229-0.249V327.57a3.914,3.914,0,0,1-.418-0.4,3.428,3.428,0,0,1-.359-0.428,3.809,3.809,0,0,1-.319-0.529,3.5,3.5,0,0,1-.359-0.986q-0.079-.449-0.1-0.528a0.218,0.218,0,0,0-.15-0.13,0.333,0.333,0,0,1-.189-0.209,1.565,1.565,0,0,1-.15-0.717m4.454,7.334,0.538,2.072,0.877-2.352-0.837-.6Zm-1.435-.917-0.8.637,0.9,2.352,0.478-2.093Zm7.095-7.793a0.643,0.643,0,0,1,.448.28,1.084,1.084,0,0,1,.189.578c0,0.066.007,0.176,0.02,0.328s0.02,0.31.02,0.468-0.007.31-.02,0.449a0.5,0.5,0,0,1-.06.249,0.179,0.179,0,0,1-.149.07c-0.047-.007-0.07.016-0.07,0.07,0,0.026,0,.109-0.01.249a3.477,3.477,0,0,1-.109.608,1.448,1.448,0,0,1-.12.358,1.937,1.937,0,0,1-.419.538,2.475,2.475,0,0,0-.019.3v0.459a0.344,0.344,0,0,0,.079.2,0.506,0.506,0,0,0,.239.1c0.053,0.014.18,0.054,0.379,0.12s0.415,0.143.648,0.229l0.647,0.239a4.494,4.494,0,0,1,.419.17,0.865,0.865,0,0,1,.329.249,0.888,0.888,0,0,1,.129.349c0.014,0.066.033,0.192,0.06,0.379s0.053,0.385.08,0.6,0.053,0.4.079,0.578a2.806,2.806,0,0,1,.04.339,0.389,0.389,0,0,1-.05.269,0.432,0.432,0,0,1-.309.149c-0.132.027-.3,0.06-0.517,0.1a8.176,8.176,0,0,1-.838.1,2.533,2.533,0,0,0-.119-0.459c-0.04-.133-0.086-0.272-0.14-0.418a1.443,1.443,0,0,0-.2-0.379,2.262,2.262,0,0,0-.458-0.478,3.06,3.06,0,0,0-.479-0.3,2.759,2.759,0,0,0-.478-0.189q-0.238-.071-0.478-0.15a15.336,15.336,0,0,0-1.634-.5,1.762,1.762,0,0,1-.7-0.239,0.305,0.305,0,0,1-.05-0.14,1.386,1.386,0,0,1-.01-0.179,1.263,1.263,0,0,1,.02-0.219,3.277,3.277,0,0,1,.418-0.1c0.093-.013.166-0.027,0.219-0.04a2.849,2.849,0,0,0,.3-0.09,0.168,0.168,0,0,0,.14-0.149v-0.7l-0.04-.02-0.08-.04a0.223,0.223,0,0,1-.08-0.1,6.107,6.107,0,0,0,.24-0.618q0.1-.318.209-0.777a10.272,10.272,0,0,0,.189-1.1c0.04-.332.066-0.631,0.08-0.9s0.02-.5.02-0.7V321.85a3.033,3.033,0,0,1,.508-0.04,1.823,1.823,0,0,1,.429.04,0.834,0.834,0,0,1,.408.2,0.694,0.694,0,0,0,.149.159,0.311,0.311,0,0,0,.17.03,1.436,1.436,0,0,1,.329.029h0Zm-1.017,6.378,0.14,0.538,0.358,0.12,0.279-.718-0.418-.359Zm-1.036-.359-0.339.339,0.02,0.079,0.618,0.18,0.079-.219Zm-8.848-6.457a3.394,3.394,0,0,0-.637-0.02,3.708,3.708,0,0,0-.608.1,1.741,1.741,0,0,0-.608.279,1.3,1.3,0,0,0-.379.378,1.856,1.856,0,0,0-.209.449,2.28,2.28,0,0,0-.09.428c-0.013.133-.02,0.24-0.02,0.32q-0.02.258-.039,0.468a1.09,1.09,0,0,0,.019.368c0.027,0.106.047,0.18,0.06,0.219a0.2,0.2,0,0,0,.08.1,0.341,0.341,0,0,0,.1.05,0.471,0.471,0,0,1,.079.269,1.574,1.574,0,0,0,.13.508,2.062,2.062,0,0,0,.229.409,1,1,0,0,0,.15.189,2.361,2.361,0,0,1,.169.19,1.493,1.493,0,0,0,.2.2v0.578a0.392,0.392,0,0,1-.089.2,0.486,0.486,0,0,1-.27.119c-0.066.014-.176,0.04-0.328,0.08l-0.5.13q-0.268.069-.538,0.149c-0.179.053-.322,0.1-0.428,0.14a1.23,1.23,0,0,0-.7.956c-0.054.213-.113,0.479-0.18,0.8s-0.113.545-.14,0.678a1.009,1.009,0,0,0,.01.419,0.378,0.378,0,0,0,.33.278,1.9,1.9,0,0,0,.348.06,4.107,4.107,0,0,1,.409.06c0.146,0.027.3,0.046,0.458,0.06a3.068,3.068,0,0,1,.12-0.478,2.3,2.3,0,0,1,.169-0.439,2.338,2.338,0,0,1,.269-0.418,2.49,2.49,0,0,1,.389-0.349c0.152-.113.3-0.223,0.448-0.329a4.981,4.981,0,0,1,.518-0.339l-0.2-.5,0.438-.339,0.458,0.518,0.24-.059a0.317,0.317,0,0,0,.119-0.04,0.169,0.169,0,0,1,.08-0.02l0.379-.439,0.338,0.279q0.1-.019.18-0.039c0.053-.014.113-0.027,0.179-0.04l0.2-.04c0.147-.027.269-0.053,0.369-0.08a0.215,0.215,0,0,0,.169-0.2,0.737,0.737,0,0,1,.01-0.13,0.432,0.432,0,0,0,.01-0.089v-0.06c-0.119-.04-0.232-0.08-0.338-0.12l-0.28-.08a1.349,1.349,0,0,1-.219-0.079,0.244,0.244,0,0,1-.179-0.169,1.725,1.725,0,0,1-.02-0.29v-0.2a1.033,1.033,0,0,1,.02-0.2,1.767,1.767,0,0,1,.02-0.239c-0.107-.16-0.213-0.332-0.319-0.518a4.691,4.691,0,0,1-.269-0.549,3.977,3.977,0,0,1-.209-0.647,7.177,7.177,0,0,1-.14-0.977,7.759,7.759,0,0,1-.02-0.936,7.85,7.85,0,0,1,.06-0.977h0Z" transform="translate(-495 -313)"/>
</svg>
