<svg xmlns="http://www.w3.org/2000/svg" width="50" height="50" viewBox="0 0 50 50">
  <metadata><?xpacket begin="﻿" id="W5M0MpCehiHzreSzNTczkc9d"?>
<x:xmpmeta xmlns:x="adobe:ns:meta/" x:xmptk="Adobe XMP Core 5.6-c138 79.159824, 2016/09/14-01:09:01        ">
   <rdf:RDF xmlns:rdf="http://www.w3.org/1999/02/22-rdf-syntax-ns#">
      <rdf:Description rdf:about=""/>
   </rdf:RDF>
</x:xmpmeta>
                                                                                                    
                                                                                                    
                                                                                                    
                                                                                                    
                                                                                                    
                                                                                                    
                                                                                                    
                                                                                                    
                                                                                                    
                                                                                                    
                                                                                                    
                                                                                                    
                                                                                                    
                                                                                                    
                                                                                                    
                                                                                                    
                                                                                                    
                                                                                                    
                                                                                                    
                                                                                                    
                           
<?xpacket end="w"?></metadata>
<defs>
    <style>
      .cls-1 {
        fill: #eaeaea;
        fill-rule: evenodd;
      }
    </style>
  </defs>
  <path id="普通用户" class="cls-1" d="M3422.07,4143.92a25.645,25.645,0,0,1-3.92.01V4144l-1.23-.19c-0.53-.06-1.05-0.15-1.58-0.24-0.79-.13-1.58-0.25-2.37-0.38a12.741,12.741,0,0,1-4.43-1.78,13.006,13.006,0,0,1-1.45-.98c-0.09-.07-0.46-0.27-0.66-0.43a25,25,0,1,1,29.36-1.62v0.02a0.163,0.163,0,0,1-.17.12,2.1,2.1,0,0,0-.17.14,11.058,11.058,0,0,1-2.78,2.04,26.773,26.773,0,0,1-5.27,2.19c-0.78.24-1.57,0.44-2.36,0.6-1.69.36-2.97,0.51-2.97,0.51v-0.08Zm0,0a25.5,25.5,0,0,0,5.33-1.03,25.055,25.055,0,0,0,8.05-4.23c0.01-.02.03-0.04,0.04-0.06a0.183,0.183,0,0,1,.13-0.08l0.17-.14a7.157,7.157,0,0,0-.6-2.46,14.827,14.827,0,0,0-12.01-11.37l-1.82,3.32-1.97.05-1.85-3.22a14.809,14.809,0,0,0-11.39,11.92,14.653,14.653,0,0,0,.14,3.22,0.312,0.312,0,0,0,.14.16,25.027,25.027,0,0,0,8.91,3.57l1.58,0.24q0.615,0.075,1.23.12l1.63-16.01h1.21Zm-1.37-21.8a8.506,8.506,0,1,0-8.36-8.5,8.482,8.482,0,0,0,8.36,8.5h0Zm0,0" transform="translate(-3395 -4094)"/>
</svg>
