<svg xmlns="http://www.w3.org/2000/svg" xmlns:xlink="http://www.w3.org/1999/xlink" width="29" height="29" viewBox="0 0 29 29">
  <metadata><?xpacket begin="﻿" id="W5M0MpCehiHzreSzNTczkc9d"?>
<x:xmpmeta xmlns:x="adobe:ns:meta/" x:xmptk="Adobe XMP Core 5.6-c138 79.159824, 2016/09/14-01:09:01        ">
   <rdf:RDF xmlns:rdf="http://www.w3.org/1999/02/22-rdf-syntax-ns#">
      <rdf:Description rdf:about=""/>
   </rdf:RDF>
</x:xmpmeta>
                                                                                                    
                                                                                                    
                                                                                                    
                                                                                                    
                                                                                                    
                                                                                                    
                                                                                                    
                                                                                                    
                                                                                                    
                                                                                                    
                                                                                                    
                                                                                                    
                                                                                                    
                                                                                                    
                                                                                                    
                                                                                                    
                                                                                                    
                                                                                                    
                                                                                                    
                                                                                                    
                           
<?xpacket end="w"?></metadata>
<defs>
    <style>
      .cls-1 {
        fill-rule: evenodd;
        filter: url(#filter);
      }
    </style>
    <filter id="filter" x="495" y="371" width="29" height="29" filterUnits="userSpaceOnUse">
      <feFlood result="flood" flood-color="#fff"/>
      <feComposite result="composite" operator="in" in2="SourceGraphic"/>
      <feBlend result="blend" in2="SourceGraphic"/>
    </filter>
  </defs>
  <path id="角色权限" class="cls-1" d="M510.37,385.952a6.619,6.619,0,0,0-1.08-.429,3.868,3.868,0,1,0-3.8,0,6.642,6.642,0,0,0-4.74,6.364q0,0.3.025,0.583a0.259,0.259,0,0,0,.257.234h0.233a0.259,0.259,0,0,0,.258-0.258v-0.561a5.871,5.871,0,0,1,8.149-5.4c0.117,0.05.233,0.1,0.346,0.16a0.388,0.388,0,0,0,.447-0.073,0.384,0.384,0,0,0-.1-0.615h0Zm-6.072-3.8a3.092,3.092,0,1,1,.9,2.188,3.081,3.081,0,0,1-.9-2.188h0Zm0.6,5.242a4.187,4.187,0,0,0-2.129,2.638,0.321,0.321,0,0,0,.218.4,0.292,0.292,0,0,0,.092.013,0.323,0.323,0,0,0,.309-0.23,3.837,3.837,0,0,1,.593-1.225,3.584,3.584,0,0,1,1.22-1.028,0.321,0.321,0,1,0-.3-0.567h0Zm1.175,0.149a0.322,0.322,0,1,0-.264-0.185,0.322,0.322,0,0,0,.264.185h0Zm12.177,1.661a0.5,0.5,0,0,1-.5.5h-0.345a0,0,0,0,1,0,0,0.253,0.253,0,0,0-.2.152l-0.164.363a0.252,0.252,0,0,0,.042.263s0,0.008-.006.011l0.236,0.237a0.506,0.506,0,0,1,0,.715l-0.355.356a0.5,0.5,0,0,1-.712,0l-0.24-.24-0.006,0a0.252,0.252,0,0,0-.236-0.024l-0.372.141a0.249,0.249,0,0,0-.154.2l-0.008,0v0.321c0,0.016,0,.032,0,0.048v0.009a0.5,0.5,0,0,1-.5.448h-0.5a0.506,0.506,0,0,1-.5-0.5v-0.327c-0.013,0-.028-0.007-0.041-0.012a0.254,0.254,0,0,0-.146-0.166l-0.365-.167a0.255,0.255,0,0,0-.228.016l-0.012-.008-0.235.237a0.5,0.5,0,0,1-.712,0l-0.355-.358a0.505,0.505,0,0,1,0-.714l0.248-.248a0.26,0.26,0,0,0-.013-0.024,0.257,0.257,0,0,0,0-.2l-0.14-.374a0.252,0.252,0,0,0-.153-0.145c0-.015-0.008-0.029-0.012-0.045H511.2a0.5,0.5,0,0,1-.5-0.5v-0.5a0.5,0.5,0,0,1,.5-0.5h0.386c0-.008,0-0.014.006-0.02a0.254,0.254,0,0,0,.136-0.137l0.166-.365a0.256,0.256,0,0,0,0-.205c0.006-.011.012-0.022,0.019-0.033l-0.272-.273a0.507,0.507,0,0,1,0-.714l0.356-.356a0.5,0.5,0,0,1,.712,0l0.167,0.167a0.262,0.262,0,0,0,.091.093l0.022,0.022,0.01-.007a0.248,0.248,0,0,0,.191,0l0.372-.139a0.256,0.256,0,0,0,.145-0.154l0.019-.006v-0.378s0-.011,0-0.015l0.011-.09a0.5,0.5,0,0,1,.492-0.4h0.5a0.5,0.5,0,0,1,.5.5v0.253a0.254,0.254,0,0,0,.146.3l0.36,0.164a0.251,0.251,0,0,0,.256-0.037l0.007,0,0.241-.242,0.122-.1a0.5,0.5,0,0,1,.607.08l0.355,0.357a0.5,0.5,0,0,1,0,.713l-0.25.252,0,0.006a0.255,0.255,0,0,0-.027.242l0.139,0.373a0.252,0.252,0,0,0,.212.156s0,0,0,.009h0.34l0.132,0.015a0.5,0.5,0,0,1,.381.489v0.5m-3.779-1.62a1.365,1.365,0,1,0,1.361,1.365,1.363,1.363,0,0,0-1.361-1.365M509.5,400A14.5,14.5,0,1,1,524,385.5,14.516,14.516,0,0,1,509.5,400h0Zm0-27.625A13.124,13.124,0,1,0,522.623,385.5,13.138,13.138,0,0,0,509.5,372.376h0Zm0,0" transform="translate(-495 -371)"/>
</svg>
