<svg xmlns="http://www.w3.org/2000/svg" width="158" height="140" viewBox="0 0 158 140">
  <metadata><?xpacket begin="﻿" id="W5M0MpCehiHzreSzNTczkc9d"?>
<x:xmpmeta xmlns:x="adobe:ns:meta/" x:xmptk="Adobe XMP Core 5.6-c138 79.159824, 2016/09/14-01:09:01        ">
   <rdf:RDF xmlns:rdf="http://www.w3.org/1999/02/22-rdf-syntax-ns#">
      <rdf:Description rdf:about=""
            xmlns:xmp="http://ns.adobe.com/xap/1.0/">
         <xmp:CreatorTool>Adobe Photoshop CC 2017 (Macintosh)</xmp:CreatorTool>
      </rdf:Description>
   </rdf:RDF>
</x:xmpmeta>
                                                                                                    
                                                                                                    
                                                                                                    
                                                                                                    
                                                                                                    
                                                                                                    
                                                                                                    
                                                                                                    
                                                                                                    
                                                                                                    
                                                                                                    
                                                                                                    
                                                                                                    
                                                                                                    
                                                                                                    
                                                                                                    
                                                                                                    
                                                                                                    
                                                                                                    
                                                                                                    
                           
<?xpacket end="w"?></metadata>
<defs>
    <style>
      .cls-1 {
        fill: #ffdc68;
        fill-rule: evenodd;
      }
    </style>
  </defs>
  <path id="形状_794" data-name="形状 794" class="cls-1" d="M3297.93,3547.24l-24.18-38.53a7.3,7.3,0,0,0-9.88-2.25l-119.69,76.8a7.549,7.549,0,0,0-2.22,10l23.94,38.28a7.348,7.348,0,0,0,9.87,2.25l119.69-76.8a7.089,7.089,0,0,0,2.47-9.75h0Zm-4.94,5.75-119.69,76.79a2.385,2.385,0,0,1-3.21-.75l-23.94-38.27a2.451,2.451,0,0,1,.74-3.25l119.7-76.79a2.385,2.385,0,0,1,3.21.75l23.94,38.27a2.454,2.454,0,0,1-.75,3.25h0Zm-104.39-29.02-0.49-5.25,4.44,2.75,4.69-2.25-1.24,5,3.46,4.01-5.18.5-2.47,4.5-1.98-4.75-4.93-1a50.386,50.386,0,0,1,3.7-3.51h0Zm27.15-9.75,2.22-4.75,2.47,4.5,5.18,0.5-3.46,3.75,0.99,5.25-4.69-2.25-4.44,2.75,0.74-5.25-3.95-3.5c-0.24,0,4.94-1,4.94-1h0Zm35.54,102.56,0.49,5.25-4.44-2.75-4.69,2,1.23-5-3.45-4.01,5.18-.5,2.72-4.5,1.97,4.75,4.94,1a52.644,52.644,0,0,1-3.95,3.76h0Zm18.12-18.76,0.49,5.25-4.44-2.75-4.69,2,1.24-5-3.46-4.01,5.18-.5,2.72-4.5,1.97,4.75,4.94,1c0,0.25-3.95,3.76-3.95,3.76h0Zm-45.27,28.26-2.22,4.75-2.47-4.5-5.18-.5,3.7-3.75-0.99-5,4.69,2.25,4.44-2.5-0.74,5.25,3.7,3.5c0-.5-4.93.5-4.93,0.5h0Zm-53.8-80.79-2.96-4.26,5.18,0.25,3.21-4.25,1.48,5,4.93,1.76-4.19,3v5.25l-3.95-3.25-4.94,1.5c-0.49,0,1.24-5,1.24-5h0Zm15.05-30.77a63.377,63.377,0,0,1,63.43-3l4.69-3.01a69.843,69.843,0,0,0-18.51-7.25,67.163,67.163,0,0,0-26.41-.75,64.8,64.8,0,0,0-25.67,10.01,70.208,70.208,0,0,0-31.83,63.78l4.69-3a63.471,63.471,0,0,1,29.61-56.78h0Zm68.86,110.06a63.377,63.377,0,0,1-63.43,3l-4.69,3a69.53,69.53,0,0,0,18.51,7.26,67.163,67.163,0,0,0,26.41.75,68.775,68.775,0,0,0,25.67-10.01,66.273,66.273,0,0,0,19.74-19.26,69.716,69.716,0,0,0,10.61-24.51,68.355,68.355,0,0,0,1.48-20.01l-4.44,3c0.49,22.26-10.12,44.27-29.86,56.78h0Zm-54.54-87.3a35.642,35.642,0,0,1,17.77-5.75l7.4-4.75a40.434,40.434,0,0,0-27.64,6.5,42.62,42.62,0,0,0-17.52,22.51l7.4-4.75a33.392,33.392,0,0,1,12.59-13.76h0Zm40.22,64.54a35.642,35.642,0,0,1-17.77,5.75l-7.4,4.75a40.488,40.488,0,0,0,27.64-6.5,42.62,42.62,0,0,0,17.52-22.51l-7.4,4.75a36.95,36.95,0,0,1-12.59,13.76h0Zm-70.37-14.99a36.65,36.65,0,0,1-2.99,11.83,30.016,30.016,0,0,0-4.02-2.23,23.157,23.157,0,0,0,2.34-8.81Zm20.03,1.85,1.04,1.69,2.98-1.88,2.22,3.64-2.98,1.87,3.04,4.96c1.15,1.89,1.42,3.07.54,4.42s-2.43,2.41-4.48,3.7a18.433,18.433,0,0,0-3.48-3.03,35.7,35.7,0,0,0,3.12-1.89c0.41-.26.5-0.43,0.28-0.79l-2.99-4.88-5.69,3.58a24.784,24.784,0,0,1,5.75,2.65l-2.33,4.11a25.22,25.22,0,0,0-5.93-3.07l1.96-3.34-4.1,2.58-2.22-3.64,10.34-6.5-1.04-1.69-10.58,6.66-1.38-2.25c-0.04.61-.09,1.21-0.14,1.82l9.39,15.33-3.81,2.39-6.73-11.01a25.062,25.062,0,0,1-.97,3.26,32.581,32.581,0,0,0-4.33-3.12,30.5,30.5,0,0,0,2.33-11.06l4.33-.65c0.02,0.34.01,0.69,0,1.04l5.96-3.75-1.1-1.8-5.39,3.39-2.23-3.63,5.39-3.39-1.71-2.8,3.97-2.5,1.71,2.8,5.72-3.59,2.22,3.63-5.72,3.6,1.11,1.8,6.92-4.35,2.24,3.66Zm31.33-5.46c1.56-.98,1.49-1.78-0.17-5.04a14.243,14.243,0,0,0,4.56-.71c2.13,4.65,1.89,6.8-1.8,9.12l-5.47,3.44c-4.27,2.68-6.22,2.22-8.85-2.08l-4.16-6.79-1.3,1.77-3.41-2.35,9.35,15.28-3.91,2.46-8.2-13.39c-0.1.76-.19,1.47-0.33,2.17a37.623,37.623,0,0,0-4.6-2.87,33.932,33.932,0,0,0-.22-13.8l4.39-1.11a55.568,55.568,0,0,1,.91,6.99l2.39,3.91,2.38-3.22-3.75-6.13,3.94-2.48,2.79,4.55,1.42-1.89-4.26-6.96,3.72-2.34,3.34,5.46,1.39-1.87,0.34-.75,0.4-.95,3.34-.67,0.24,0.69c2.87,4.76,4.68,7.77,5.3,9.03,0.81,1.53.9,2.66,0.25,3.76a8.671,8.671,0,0,1-3,2.58,14.514,14.514,0,0,0-2.9-3.05l3.14,5.13-3.72,2.33-5.06-8.26-1.4,1.92,5.13,8.37c1.05,1.72,1.39,1.78,3.08.71Zm-8.71-11.87,2.73,4.46c0.51-.28,1.13-0.63,1.4-0.81a0.544,0.544,0,0,0,.2-0.85c-0.17-.39-0.94-1.71-2.83-4.86Zm16.81-24.09c0.76,1.29,1.67,2.9,2.62,4.76,2.82,3.68,10.53,12.39,22.61,10.71a13.608,13.608,0,0,0-.79,5.33c-7.46.81-13.51-2.14-17.94-5.61a27.469,27.469,0,0,1-2.07,18.46,15.543,15.543,0,0,0-5.36-1.2c7.21-13.09-.74-24.49-3.66-29.56Zm24.28-3.79a19.6,19.6,0,0,0-3-2.06,29.44,29.44,0,0,1-.26,4.96,25.539,25.539,0,0,0-4.55-.06,21.871,21.871,0,0,0-.19-9.67l4.28-1.35c0.13,0.57.21,1.14,0.3,1.73l5.42-3.41,1.36,2.22a14.238,14.238,0,0,0-.01-6.33l4.28-1.42c0.12,0.57.21,1.21,0.31,1.8l6.62-4.16,1.93,3.16-3.31,2.08a22.532,22.532,0,0,1,2.76,1.41l-3.37,3.16a20.848,20.848,0,0,0-3.52-1.97l-1.01.63a16.658,16.658,0,0,1-.37,2.5,27.716,27.716,0,0,0-3.89-.17l0.16,0.25-3.23,2.03a13.412,13.412,0,0,1,2.19,1.43Zm8.02-5.96c3.61,0.57,8.81-.47,13.53-2.41a18.294,18.294,0,0,0-.4,4.67,30.926,30.926,0,0,1-6.35,1.39l1.12,1.83-11.35,7.13-1.11-1.8a50.12,50.12,0,0,1-3.71,5.14,16.1,16.1,0,0,0-4.17-1.68c3.94-4.21,7.66-9.77,8.42-14.59l4.13-.37Zm-3.59,13.2a26.991,26.991,0,0,1,5.32,2.8l-2.41,3.74a29.121,29.121,0,0,0-5.23-3.09Zm16.42-9.14a65.294,65.294,0,0,1,1.21,7.23l4.68-2.94,2.15,3.52-23.91,15.04-2.15-3.53,15.07-9.47a37.984,37.984,0,0,0-1.24-8.59Zm-9.5-.24a25.166,25.166,0,0,1-4.25-.44,35.711,35.711,0,0,1-1.83,4.26Zm-0.3,4.83a35.493,35.493,0,0,1,5.24,3.43l-2.46,3.47a39.94,39.94,0,0,0-5.17-3.74Z" transform="translate(-3140.94 -3499.75)"/>
</svg>
