<?xml version="1.0" encoding="utf-8"?>
<!-- Generator: Adobe Illustrator 21.0.0, SVG Export Plug-In . SVG Version: 6.00 Build 0)  -->
<svg version="1.1" id="图层_1" xmlns="http://www.w3.org/2000/svg" xmlns:xlink="http://www.w3.org/1999/xlink" x="0px" y="0px"
	 viewBox="0 0 800 600" style="enable-background:new 0 0 800 600;" xml:space="preserve">
<style type="text/css">
	.st0{fill-rule:evenodd;clip-rule:evenodd;fill:#FFA9A9;}
	.st1{fill:#FFA9A9;}
	.st2{font-family:'SourceHanSansCN-Heavy-GBpc-EUC-H';}
	.st3{font-size:166.0675px;}
</style>
<path class="st0" d="M802.5,186.2L677.7-9.8c-10.2-16.5-33.1-21.6-51-11.5L8.7,369.4C-8,380.7-13,403-2.8,420.3L120.8,615
	c11.3,16.6,33.6,21.6,51,11.5l618-390.7C807.6,225.6,812.7,202.7,802.5,186.2L802.5,186.2z M777,215.5l-618,390.7
	c-5.1,3.8-12.7,1.3-16.6-3.8L18.9,407.6c-3.8-5.1-1.3-12.7,3.8-16.5l618-390.7c5.1-3.8,12.7-1.3,16.6,3.8l123.6,194.7
	C784.7,204,782.1,211.6,777,215.5L777,215.5z M238.1,67.8l-2.5-26.7l22.9,14l24.2-11.5l-6.4,25.5l17.8,20.4L267.4,92l-12.7,22.9
	l-10.2-24.2l-25.5-5.1C217.7,85.6,238.1,67.8,238.1,67.8L238.1,67.8z M378.2,18.2L389.7-6l12.7,22.9l26.8,2.5l-17.8,19.1l5.1,26.7
	l-24.2-11.5l-22.9,14l3.8-26.7l-20.4-17.8C351.5,23.3,378.2,18.2,378.2,18.2L378.2,18.2z M561.7,540l2.5,26.7l-22.9-14l-24.2,10.2
	l6.4-25.5l-17.8-20.4l26.8-2.5l14-22.9l10.2,24.2l25.5,5.1C582.1,522.1,561.7,540,561.7,540L561.7,540z M655.3,444.5l2.5,26.7
	l-22.9-14l-24.2,10.2L617,442l-17.8-20.4l26.8-2.5l14-22.9l10.2,24.2l25.5,5.1C675.7,426.7,655.3,444.5,655.3,444.5L655.3,444.5z
	 M421.5,588.3l-11.5,24.2l-12.7-22.9l-26.8-2.5l19.1-19.1l-5.1-25.5l24.2,11.5l22.9-12.7l-3.8,26.7l19.1,17.8
	C447,583.2,421.5,588.3,421.5,588.3L421.5,588.3z M143.8,177.3l-15.3-21.6l26.8,1.3l16.6-21.6l7.6,25.5l25.5,8.9l-21.7,15.3v26.7
	l-20.4-16.5l-25.5,7.6C134.8,202.7,143.8,177.3,143.8,177.3L143.8,177.3z"/>
<path class="st0" d="M221.5,20.7C323.4-44.2,448.3-45.4,549,5.5l24.2-15.3c-29.3-16.5-62.4-29.3-95.6-36.9
	c-44.6-10.2-91.7-11.5-136.3-3.8c-47.1,7.6-91.7,24.2-132.5,50.9s-75.2,58.5-101.9,98C80.1,136.5,62.2,178.5,52,223.1
	c-7.6,34.4-10.2,68.7-7.6,101.8l24.2-15.3C63.5,196.4,118.3,84.4,221.5,20.7L221.5,20.7z M577,580.7
	c-101.9,64.9-226.8,66.2-327.5,15.3l-24.2,15.3c29.3,16.5,62.4,29.3,95.6,36.9c44.6,10.2,91.7,11.5,136.3,3.8
	c47.1-7.6,91.7-25.5,132.5-50.9c40.8-25.5,75.2-58.5,101.9-98c26.8-38.2,44.6-80.2,54.8-124.7c7.6-34.4,10.2-67.4,7.6-101.8
	l-22.9,15.3C733.7,405.1,678.9,517.1,577,580.7L577,580.7z"/>
<path class="st0" d="M295.4,136.5c28-17.8,59.9-28,91.7-29.3l38.2-24.2c-49.7-6.4-99.4,5.1-142.7,33.1
	c-43.3,26.7-73.9,67.4-90.5,114.5l38.2-24.2C244.4,178.5,266.1,154.4,295.4,136.5L295.4,136.5z M503.1,464.9
	c-28,17.8-59.9,28-91.7,29.3l-38.2,24.2c49.7,6.4,99.4-5.1,142.7-33.1c43.3-26.7,73.9-67.4,90.5-114.5l-38.2,24.2
	C554.1,421.6,531.1,447.1,503.1,464.9L503.1,464.9z"/>
<text transform="matrix(0.8505 -0.527 0.5276 0.8495 221.5365 487.9771)" class="st1 st2 st3">待我签</text>
</svg>
