<svg xmlns="http://www.w3.org/2000/svg" width="158" height="140" viewBox="0 0 158 140">
  <metadata><?xpacket begin="﻿" id="W5M0MpCehiHzreSzNTczkc9d"?>
<x:xmpmeta xmlns:x="adobe:ns:meta/" x:xmptk="Adobe XMP Core 5.6-c138 79.159824, 2016/09/14-01:09:01        ">
   <rdf:RDF xmlns:rdf="http://www.w3.org/1999/02/22-rdf-syntax-ns#">
      <rdf:Description rdf:about=""
            xmlns:xmp="http://ns.adobe.com/xap/1.0/">
         <xmp:CreatorTool>Adobe Photoshop CC 2017 (Macintosh)</xmp:CreatorTool>
      </rdf:Description>
   </rdf:RDF>
</x:xmpmeta>
                                                                                                    
                                                                                                    
                                                                                                    
                                                                                                    
                                                                                                    
                                                                                                    
                                                                                                    
                                                                                                    
                                                                                                    
                                                                                                    
                                                                                                    
                                                                                                    
                                                                                                    
                                                                                                    
                                                                                                    
                                                                                                    
                                                                                                    
                                                                                                    
                                                                                                    
                                                                                                    
                           
<?xpacket end="w"?></metadata>
<defs>
    <style>
      .cls-1 {
        fill: #fd9394;
        fill-rule: evenodd;
      }
    </style>
  </defs>
  <path id="形状_792" data-name="形状 792" class="cls-1" d="M3295.99,2404.49l-24.18-38.53a7.292,7.292,0,0,0-9.87-2.25l-119.7,76.8a7.559,7.559,0,0,0-2.22,10l23.94,38.28a7.35,7.35,0,0,0,9.87,2.25l119.7-76.8a7.094,7.094,0,0,0,2.46-9.75h0Zm-4.93,5.75-119.7,76.79a2.385,2.385,0,0,1-3.21-.75l-23.94-38.27a2.461,2.461,0,0,1,.74-3.25l119.7-76.79a2.385,2.385,0,0,1,3.21.75l23.94,38.27a2.451,2.451,0,0,1-.74,3.25h0Zm-104.4-29.02-0.49-5.25,4.44,2.75,4.69-2.25-1.23,5,3.45,4.01-5.18.5-2.47,4.5-1.97-4.75-4.94-1a50.386,50.386,0,0,1,3.7-3.51h0Zm27.15-9.75,2.22-4.75,2.47,4.5,5.18,0.5-3.45,3.75,0.98,5.25-4.68-2.25-4.45,2.75,0.74-5.25-3.95-3.5c-0.24,0,4.94-1,4.94-1h0Zm35.54,102.56,0.49,5.25-4.44-2.75-4.69,2,1.24-5-3.46-4.01,5.18-.5,2.72-4.5,1.97,4.75,4.94,1a52.644,52.644,0,0,1-3.95,3.76h0Zm18.12-18.76,0.5,5.25-4.45-2.75-4.68,2,1.23-5-3.46-4.01,5.19-.5,2.71-4.5,1.98,4.75,4.93,1c0,0.25-3.95,3.76-3.95,3.76h0Zm-45.27,28.26-2.22,4.75-2.47-4.5-5.18-.5,3.7-3.75-0.99-5,4.69,2.25,4.45-2.5-0.74,5.25,3.7,3.5c0-.5-4.94.5-4.94,0.5h0Zm-53.8-80.79-2.96-4.26,5.18,0.25,3.21-4.25,1.48,5,4.94,1.76-4.2,3v5.25l-3.95-3.25-4.93,1.5c-0.5,0,1.23-5,1.23-5h0Zm15.05-30.77a63.377,63.377,0,0,1,63.43-3l4.69-3.01a69.71,69.71,0,0,0-18.51-7.25,67.163,67.163,0,0,0-26.41-.75,64.7,64.7,0,0,0-25.66,10.01,70.194,70.194,0,0,0-31.84,63.78l4.69-3a63.471,63.471,0,0,1,29.61-56.78h0Zm68.86,110.06a63.376,63.376,0,0,1-63.43,3l-4.68,3.01a69.645,69.645,0,0,0,18.5,7.25,67.163,67.163,0,0,0,26.41.75,68.775,68.775,0,0,0,25.67-10.01,66.156,66.156,0,0,0,19.74-19.26,69.716,69.716,0,0,0,10.61-24.51,68.362,68.362,0,0,0,1.49-20.01l-4.45,3c0.5,22.26-10.12,44.27-29.86,56.78h0Zm-54.54-87.3a35.642,35.642,0,0,1,17.77-5.75l7.4-4.75a40.447,40.447,0,0,0-27.64,6.5,42.668,42.668,0,0,0-17.52,22.51l7.4-4.75a33.459,33.459,0,0,1,12.59-13.76h0Zm40.23,64.54a35.642,35.642,0,0,1-17.77,5.75l-7.41,4.75a40.434,40.434,0,0,0,27.64-6.5,42.638,42.638,0,0,0,17.53-22.51l-7.41,4.75a36.922,36.922,0,0,1-12.58,13.76h0Zm-58.22-23.78a36.65,36.65,0,0,1-2.99,11.83,30.067,30.067,0,0,0-4.02-2.24,23.11,23.11,0,0,0,2.34-8.8Zm20.03,1.84,1.04,1.7,2.98-1.88,2.22,3.63-2.98,1.88,3.04,4.96c1.15,1.89,1.42,3.06.54,4.42s-2.43,2.41-4.48,3.7a17.789,17.789,0,0,0-3.48-3.03,35.7,35.7,0,0,0,3.12-1.89c0.41-.26.5-0.43,0.28-0.79l-2.99-4.88-5.69,3.58a24.782,24.782,0,0,1,5.75,2.64l-2.33,4.12a25.22,25.22,0,0,0-5.93-3.07l1.97-3.35-4.11,2.58-2.22-3.63,10.34-6.5-1.04-1.69-10.58,6.65-1.38-2.24c-0.04.6-.09,1.21-0.14,1.81l9.39,15.34-3.8,2.39-6.74-11.01a27.285,27.285,0,0,1-.96,3.26,33.942,33.942,0,0,0-4.33-3.12,30.7,30.7,0,0,0,2.32-11.06l4.33-.65c0.02,0.34.01,0.69,0,1.04l5.96-3.75-1.1-1.8-5.39,3.39-2.22-3.64,5.38-3.38-1.71-2.8,3.97-2.5,1.71,2.8,5.72-3.59,2.22,3.63-5.72,3.59,1.11,1.81,6.92-4.36,2.24,3.66Zm30.45-16.72a33.277,33.277,0,0,1-.83,8.73c1.6,1.31,2.84,1.91,3.41,1.55,0.47-.29-0.03-1.79-1.81-5.01a11.941,11.941,0,0,0,4.65.3c2.51,5.46,2,7.35-.74,9.07-1.88,1.19-4.31.64-6.95-1.08a43.55,43.55,0,0,1-2.8,5.94,18.839,18.839,0,0,0-4.65-1.6,34.8,34.8,0,0,0,3.74-7.38,57.657,57.657,0,0,1-5.68-6.3l-5.14,3.23,1.51,2.47,3.55-3.12,2.51,3.49c-1.22,1.16-2.48,2.33-3.7,3.48l2.41,3.94c1.25,2.05,1.53,3.38.69,4.79s-2.48,2.63-4.69,4.02a17.973,17.973,0,0,0-3.89-3.19c1.47-.82,3.06-1.81,3.53-2.15,0.49-.31.57-0.55,0.3-1l-1.9-3.1-3.95,3.63-3.42-3.49c1.36-1.12,3.09-2.56,4.91-4.16l-1.88-3.08-4.82,3.03-2.32-3.8,4.81-3.03-1.51-2.47c-1.25,1.06-2.49,2.07-3.7,2.99a17.115,17.115,0,0,0-3.2-2.68,75.756,75.756,0,0,0,9.57-9.13l4.79,1.76c-1.14,1.29-2.47,2.58-3.84,3.87l1.91,3.13,4.79-3.01c-1.72-2.37-3.39-4.85-4.88-7.29l4.16-2.62a85.764,85.764,0,0,0,4.8,7.35l7.19-4.52,2.33,3.8-6.82,4.28c1.01,1.21,1.98,2.36,2.94,3.37a23.258,23.258,0,0,0,.19-4.34Zm-6.45-4.78a21.973,21.973,0,0,0-6.47-2.23l1.72-3.92a24.137,24.137,0,0,1,6.58,1.89Zm12.36-6.5a20.255,20.255,0,0,0-3.01-2.06,28.426,28.426,0,0,1-.26,4.96,24.525,24.525,0,0,0-4.54-.06,22.027,22.027,0,0,0-.2-9.67l4.29-1.35c0.12,0.57.2,1.14,0.3,1.73l5.41-3.41,1.36,2.22a14.093,14.093,0,0,0-.01-6.33l4.28-1.42c0.13,0.57.21,1.21,0.31,1.8l6.62-4.16,1.94,3.16-3.32,2.08a21.2,21.2,0,0,1,2.76,1.41l-3.37,3.16a20.083,20.083,0,0,0-3.52-1.97l-1.01.63a16.7,16.7,0,0,1-.36,2.5,27.86,27.86,0,0,0-3.89-.17l0.15,0.25-3.23,2.03a14.762,14.762,0,0,1,2.2,1.42Zm8.01-5.96c3.61,0.57,8.81-.47,13.54-2.41a17.4,17.4,0,0,0-.4,4.67,30.214,30.214,0,0,1-6.36,1.38l1.12,1.83-11.35,7.14-1.1-1.8a51.77,51.77,0,0,1-3.72,5.14,15.485,15.485,0,0,0-4.17-1.68c3.94-4.21,7.66-9.77,8.43-14.59l4.13-.37Zm-3.58,13.2a27.178,27.178,0,0,1,5.31,2.8l-2.41,3.74a29.365,29.365,0,0,0-5.22-3.09Zm16.42-9.14a65.266,65.266,0,0,1,1.2,7.23l4.68-2.94,2.15,3.52-23.91,15.04-2.15-3.53,15.07-9.47a37.429,37.429,0,0,0-1.24-8.59Zm-9.51-.24a25.275,25.275,0,0,1-4.25-.44,37.333,37.333,0,0,1-1.82,4.26Zm-0.3,4.83a35.493,35.493,0,0,1,5.24,3.43l-2.46,3.47a39.259,39.259,0,0,0-5.17-3.74Z" transform="translate(-3139 -2357)"/>
</svg>
