<?xml version="1.0" encoding="utf-8"?>
<!-- Generator: Adobe Illustrator 21.0.0, SVG Export Plug-In . SVG Version: 6.00 Build 0)  -->
<svg version="1.1" id="图层_1" xmlns="http://www.w3.org/2000/svg" xmlns:xlink="http://www.w3.org/1999/xlink" x="0px" y="0px"
	 viewBox="0 0 800 600" style="enable-background:new 0 0 800 600;" xml:space="preserve">
<style type="text/css">
	.st0{fill-rule:evenodd;clip-rule:evenodd;fill:#07B906;}
</style>
<g>
	<path class="st0" d="M399.4-58C201.6-58,41,102.6,41,300.4s160.6,358.4,358.4,358.4s358.4-160.6,358.4-358.4S597.2-58,399.4-58
		L399.4-58z M333.5,395c-17.2,0-34.4-2.9-50.2-7.2c-1.4,0-2.9-1.4-2.9-1.4l-38.7,23c-10,5.8-17.2,1.4-14.3-10c0,0,10-41.6,8.6-41.6
		c-37.3-24.4-54.5-55.9-54.5-98.9c2.9-73.1,65.9-130.5,152-130.5c78.9,0,143.4,48.7,154.8,113.3h-7.2
		c-78.9,0-143.4,54.5-143.4,121.8c0,11.4,1.4,21.5,4.3,31.5H333.5L333.5,395z M564.3,451l11.4,23c5.8,10,1.4,14.3-8.6,8.6
		c0,0-28.6-17.2-30.1-15.8c-12.9,4.3-41.6,8.6-55.9,8.6c-73.1,0-133.4-50.2-133.4-111.8S408,251.8,481.1,251.8
		s133.4,50.2,133.4,111.8C614.4,399.4,595.9,429.4,564.3,451L564.3,451z"/>
	<path class="st0" d="M257.5,213c0,7.2,3.8,13.8,10,17.4c6.2,3.6,13.8,3.6,20.1,0c6.2-3.6,10-10.2,10-17.4c0-7.2-3.8-13.8-10-17.4
		c-6.2-3.6-13.8-3.6-20.1,0C261.3,199.2,257.5,205.8,257.5,213L257.5,213z M512.7,320.5c0,9.5,7.7,17.2,17.2,17.2
		s17.2-7.7,17.2-17.2c0-9.5-7.7-17.2-17.2-17.2S512.7,311,512.7,320.5L512.7,320.5z M418,320.5c0,9.5,7.7,17.2,17.2,17.2
		c9.5,0,17.2-7.7,17.2-17.2c0-9.5-7.7-17.2-17.2-17.2C425.7,303.3,418,311,418,320.5L418,320.5z M378,213c0,11.1,9,20.1,20.1,20.1
		c11.1,0,20.1-9,20.1-20.1c0-7.2-3.8-13.8-10-17.4c-6.2-3.6-13.8-3.6-20.1,0C381.7,199.2,378,205.8,378,213L378,213z"/>
</g>
</svg>
